<svg width="880" height="880" version="1.1" xmlns="http://www.w3.org/2000/svg"><path d="m597 3.5-0.848 2.71c-2.41 7.28-4.95 13.2-9.7 19.3-1.63 2.02-1.63 2.02-2.45 4.99-1.79 1.06-1.79 1.06-4 2l-2.18 1.04-2.25 1.03-2.25 1.04c-9.72 3.79-20.9 2.47-30.9 0.309l-2.46-0.527c-9.41-2.1-18.6-4.93-27.8-7.77-39.9-12.3-79.9-21.6-122-21.5l-2.66 2e-3c-43.9 0.124-91.2 8.38-131 28.4-1.43 0.692-2.86 1.38-4.29 2.07-19.1 9.46-37.3 23-47.7 41.9l-1.39 2.42c-2.62 4.83-3.98 9.2-5.11 14.6-2.2 8.14-7.04 11.3-13.7 15.7-3.23 2.26-6.18 4.83-9.15 7.41l-1.79 1.55c-8.48 7.4-15.3 15.2-21.9 24.3l-1.91 2.57c-5.65 7.74-10 15.9-12.9 25.1-1.86 5.34-4.75 8.64-8.64 12.7-2.8 2.98-5.3 6.1-7.79 9.33-2.9 3.75-5.82 7.48-8.85 11.1-41.4 49.9-69.7 112-82.9 175l-0.645 3.08c-9.14 44.7-10.5 91.7-4.36 137 0.22 1.78 0.439 3.56 0.656 5.34 9.04 70 41.5 139 88 192 1.96 2.27 3.82 4.62 5.69 6.96 4.85 5.98 10.1 11.5 15.4 17.1 2.37 2.51 4.67 5.06 6.91 7.69 6.79 7.87 14.4 15 22.3 21.8l2.79 2.41c8.78 7.58 17.9 14.7 27.2 21.6l1.82 1.36c21.5 16 45 29.1 69.2 40.6l2.37 1.15c56.6 27.2 119 38.7 182 37.9 2-0.0237 4-0.0389 6-0.043 30.5-0.106 61.7-5.44 91.1-13l3.06-0.768c27.1-6.86 52.9-16.9 77.9-29.2l2.79-1.38c24.1-12 46.4-26.5 67.5-43.2 1.76-1.39 3.52-2.77 5.29-4.14 7.44-5.78 14.7-11.7 21.9-17.9 1.12-0.962 2.24-1.92 3.36-2.87 5.7-4.88 11-10.1 16.3-15.4 1.51-1.52 3.03-3.03 4.55-4.55 7.84-7.83 15.1-15.9 21.8-24.7l1.8-2.34c1.27-1.65 2.54-3.29 3.8-4.94 1.96-2.52 3.94-5.03 5.93-7.52 14.8-18.7 26-39.3 36.7-60.5 1.12-2.18 2.26-4.35 3.42-6.52 33.6-63.5 43.9-139 38.6-210l-0.178-2.44c-5.39-72.2-33-144-76.5-202l-1.36-1.82c-13.6-18.2-29.1-34.7-45.1-50.8-1.13-1.14-2.26-2.28-3.39-3.43-7.04-7.12-14.2-13.8-22.1-19.9l-2.5-1.97c-2.47-1.92-4.95-3.82-7.43-5.72l-2.69-2.05c-8.64-6.54-17.5-12.8-26.4-18.9-2.02-1.42-3.99-2.88-5.96-4.37l0.656-3.15c4.42-21.8 1.76-42.8-10.7-61.9-2.84-3.82-5.84-7.44-9-11l-1.64-1.86c-13.3-14.1-30.9-25-48.4-33.1z" style="fill:#020617"/><path d="m189 310c6.7 3.08 11.7 7.33 16.4 12.9 0.852 0.976 1.7 1.95 2.58 2.96 9.21 10.9 15.2 23.3 21.3 36.1 0.482 1.02 0.964 2.04 1.46 3.09 0.927 1.98 1.84 3.96 2.75 5.94 4.01 8.63 8.63 17.3 17.9 20.9 3.23 0.517 6.39 0.869 9.66 1.05 4.94 1.4 7.74 4.4 11.3 7.95 0.786 0.771 1.57 1.54 2.38 2.34 3.43 3.4 6.81 6.84 10.2 10.3 4.97 5.02 10 9.82 15.4 14.4 0.785 0.687 1.57 1.37 2.38 2.08 25.4 20.2 65.9 28.7 97.6 25.9 31.6-3.8 59-17.1 82.9-37.7 10.3-8.86 21.2-17.7 33.1-24.3 0.564-0.317 1.13-0.635 1.71-0.961 8.36-4.6 16.5-8.26 26.3-6.04 3.88 2.66 5.95 5.15 8.05 9.33 0.53 1.04 1.06 2.08 1.61 3.15 0.547 1.1 1.09 2.2 1.66 3.33 1.15 2.28 2.31 4.56 3.46 6.83 0.554 1.1 1.11 2.2 1.68 3.33 1.6 3.13 3.29 6.21 5.01 9.28 3.19 5.71 5.79 11.5 8.04 17.6 0.384 1.02 0.384 1.02 0.775 2.05 1.73 5 2.33 9.79 1.72 15.1-2.76 5.52-8.5 7.76-14 10-12.5 3.89-25.6 4.39-38.6 4.43-2.28 0.0121-4.57 0.0617-6.85 0.112-8.47 0.0913-15.4-0.529-22.5-5.54-1.61-1.61-1.24-3.53-1.38-5.75-0.362-4.14-1.04-6.88-3.62-10.2-5.88 1.9-9.78 4.93-12.9 10.2-1.81 6.13-2.21 12 0.25 18 4.86 8.44 16 13.2 24.6 16.8 3.41 0.817 6.59 1.13 10.1 1.15 0.988 6e-3 1.98 0.0128 3 0.0193 1.59 2e-3 1.59 2e-3 3.21 3e-3 1.1 3e-3 2.2 7e-3 3.34 0.0101 2.33 5e-3 4.66 7e-3 6.99 7e-3 3.54 2e-3 7.08 0.0203 10.6 0.0393 2.27 3e-3 4.54 5e-3 6.81 6e-3 1.57 0.0108 1.57 0.0108 3.18 0.0218 16.1-0.0494 30.1-4.66 41.7-16.1 7.92-8.57 13.3-18.3 14.5-30-0.405-3.38-1.16-4.63-3.38-7.12v-2c1.09-0.0374 2.18-0.0748 3.3-0.113 12.7-0.528 23.8-1.92 34.7-8.89 0.932-0.585 1.86-1.17 2.82-1.77 1.87-1.18 3.74-2.38 5.6-3.58 2.5-1.6 5.03-3.13 7.58-4.65 0.782 35.5-14.1 73.5-25.2 107-2.21 6.58-4.36 13.2-6.48 19.8-0.618 1.92-1.24 3.84-1.85 5.75-0.88 2.74-1.76 5.47-2.63 8.21-3.37 10.5-6.98 20.9-11 31.2-2.18 5.58-4.1 11.2-5.91 16.9-4.98 15.2-13.3 26.5-25.9 36.4-0.755 0.624-1.51 1.25-2.29 1.89-14.7 11-34.6 16.3-52.7 18.1-0.844 0.0892-1.69 0.178-2.56 0.27-54.2 5.37-113-9.32-159-36.3-0.949-0.544-1.9-1.09-2.88-1.65-11.8-6.85-22.8-14.6-33.5-22.9-2.72-2.09-5.45-4.11-8.3-6.02-13.6-9.05-24.7-21.1-35.3-33.5-0.487-0.559-0.974-1.12-1.48-1.69-17.6-20.3-28.5-44.7-37-69.9-0.216-0.641-0.432-1.28-0.654-1.94-6.09-18.2-6.09-18.2-5.91-27.4-0.557 0.41-1.11 0.82-1.69 1.24-9.11 6.43-17.3 7.75-28.3 6.76-20.2-4.08-34.1-14.8-45.3-31.6-17.9-27.5-25.9-59.5-20.4-92.2 3.44-15.7 10.7-30.4 24.3-39.7 8.13-3.49 17.6-2.88 26-0.367z" fill="#E9870A" style="fill:#f4c7a5"/><path d="m653 146c11.8 6.22 22.4 13.9 33 22 1.53 1.18 1.53 1.18 3.09 2.38 18.8 14.9 37.2 32.6 51.9 51.6 0.921 1.11 1.85 2.22 2.77 3.33 6.88 8.27 12.7 16.9 18.4 26.1 2.1 3.41 4.3 6.72 6.6 10 6.99 10 12.4 20.9 17.9 31.8 1.11 2.18 2.23 4.34 3.39 6.49 9.03 17.1 15.3 35.7 21.4 54 0.401 1.18 0.801 2.36 1.21 3.57 11.1 33.5 13.9 68.4 14 104 3e-3 2.19 0.0128 4.39 0.0237 6.58 0.0701 18.8-1.25 37.1-4.65 55.6-0.199 1.1-0.397 2.21-0.602 3.35-6.84 37.8-18.9 73.6-36.4 108-0.761 1.51-1.52 3.03-2.28 4.54-4.88 9.59-10.7 18.5-16.7 27.5-0.393 0.596-0.787 1.19-1.19 1.81-5.32 8.05-11.2 15.4-17.5 22.7-1.96 2.29-3.85 4.62-5.75 6.96-6.76 8.29-13.6 16.6-20.9 24.4-0.565 0.605-1.13 1.21-1.71 1.83-2.78 1.97-4.48 2.32-7.91 2.36-3.08-1.11-5.85-2.69-8.69-4.31-1.71-0.938-3.42-1.88-5.14-2.81-0.867-0.482-1.73-0.964-2.63-1.46-27.4-15.2-56-28.6-85.2-40.1-5.54-2.24-10.9-4.78-16.3-7.35 1.45-3.3 3.27-5.52 5.75-8.12 4.36-4.76 8.4-9.73 12.4-14.8 0.86-1.09 0.86-1.09 1.74-2.2 1.75-2.26 3.46-4.55 5.14-6.86 0.601-0.814 1.2-1.63 1.82-2.47 4.76-6.89 7.2-14 9.35-22 1.01-3.75 2.07-7.48 3.14-11.2 0.217-0.768 0.434-1.54 0.658-2.33 2.75-9.63 5.97-19.1 9.19-28.6 2.18-6.42 4.31-12.8 6.31-19.3 2.36-7.64 4.9-15.2 7.47-22.8 2.39-7.09 4.73-14.2 7.07-21.3 0.24-0.727 0.48-1.45 0.727-2.2 9.44-28.7 16-57.5 17.3-87.8 0.0438-0.998 0.0877-2 0.133-3.02 0.73-19.2-1.28-36.2-9.49-53.7-1.97-4.25-3.36-7.48-2.64-12.3 1.32-3.23 1.32-3.23 3.12-6.75 12.3-25.1 18.6-55.2 12.1-82.8-2.65-7.67-6.7-14.7-11.2-21.4-0.407-2.73-0.407-2.73-0.641-6.05-0.0978-1.24-0.196-2.48-0.296-3.76-0.0503-0.661-0.101-1.32-0.152-2-2.01-25.7-7.37-50.6-16.9-74.6-0.725-1.84-1.39-3.7-2.02-5.57z" fill="#CB7000" style="fill:#2f8de1"/><path d="m191 602c3.21 3.01 5.02 6.53 7.06 10.4 4.29 7.82 9.24 14.8 14.9 21.6 0.473 0.575 0.947 1.15 1.43 1.74 44.4 53.7 117 80.1 185 86.5 10.1 0.822 20.1 0.913 30.2 0.9 1.32-9.1e-4 1.32-9.1e-4 2.66-2e-3 38.5-0.0714 89.2-2.48 121-27.2l1-2 2 1c-2.07 13.3-4.33 26.3-9 39-0.452 1.23-0.905 2.47-1.37 3.74-7.34 18.5-25.7 36.3-43.6 45.3 19.1 0.648 34.1-5.4 48.1-18.2 17-16.1 31.3-37.9 32.9-61.8 6.8 1.34 13 3.34 19.4 5.88 0.877 0.339 1.75 0.678 2.66 1.03 2.64 1.02 5.27 2.06 7.9 3.1 0.786 0.303 1.57 0.606 2.38 0.919 7.47 2.91 14.7 6.25 22 9.64 0.658 0.307 1.32 0.613 1.99 0.93 15.6 7.31 30.7 15.3 45.1 24.8 2.41 1.66 2.41 1.66 4.55 2.68v2c-1.97 1.67-3.93 3.22-6 4.75-0.598 0.451-1.2 0.902-1.81 1.37-1.73 1.3-3.46 2.59-5.19 3.88-0.745 0.565-1.49 1.13-2.26 1.71-1.9 1.44-3.82 2.87-5.74 4.29-0.793 0.59-1.59 1.18-2.4 1.79-2.85 2.1-5.72 4.16-8.6 6.21-1.55 1.11-1.55 1.11-3.12 2.24-12 8.39-24.9 15-37.9 21.8-1.16 0.61-2.33 1.22-3.53 1.85-15.8 8.24-31.6 15.5-48.5 21.2-0.883 0.305-1.77 0.609-2.67 0.923-12.6 4.32-25.5 7.4-38.6 10.3-0.731 0.163-1.46 0.325-2.22 0.493-5.49 1.21-11 2.3-16.5 3.32-1.46 0.271-1.46 0.271-2.95 0.548-17.9 3.22-35.3 4.06-53.5 3.9-2.68-0.016-5.36-6e-3 -8.03 4e-3 -29.9 0.0858-58.9-3.14-87.8-10.7-0.76-0.198-1.52-0.395-2.3-0.599-60.5-15.8-119-44.8-165-87.2-0.963-0.87-1.93-1.74-2.92-2.64-6.48-5.88-12.8-11.9-19-18.1-0.701-0.697-1.4-1.39-2.13-2.11-3.97-3.98-7.77-8.07-11.4-12.3-1.6-1.81-3.28-3.49-5.02-5.16-2.56-2.62-2.56-2.62-2.56-4.62 1.53-1.37 3.13-2.68 4.75-3.94 1.32-1.03 1.32-1.03 2.67-2.09 2.18-1.67 4.37-3.33 6.58-4.97 4.21 1.56 6.5 4.69 9.25 8.06 20 23.8 42.7 44.4 69.8 59.9 0.939 0.555 0.939 0.555 1.9 1.12 25.8 15.3 54.1 26.2 83.5 32.3 1.74 0.365 3.48 0.747 5.21 1.15 28.2 6.43 62.9 7.14 90.4-2.59-0.892-0.014-0.892-0.014-1.8-0.0283-69.4-1.34-147-23.7-199-72.6-2.54-2.43-2.54-2.43-5.23-4.52-3.61-2.9-6.39-6.33-9.35-9.89-0.47-0.563-0.94-1.13-1.42-1.71-3.36-4.04-6.67-8.12-9.94-12.2-1.06-1.33-2.13-2.65-3.2-3.96-10.1-12.3-10.1-12.3-9.3-20.8 1.49-5.62 4.04-10.7 6.73-15.8 5.25-10.5 6.85-20.5 7.39-32.2 0.0766-1.39 0.155-2.78 0.234-4.17 0.187-3.36 0.358-6.72 0.516-10.1z" fill="#4A3F47" style="fill:#df4444"/><path d="m409 250c0.963 0.172 1.93 0.344 2.92 0.521 24.2 4.46 46.3 14.2 68.8 23.9 11.9 5.02 24.3 8.68 37.2 8.86 0.658 0.029 1.32 0.058 1.99 0.0879 13.3 0.161 25.9-5.72 37.8-11.1 1.41-0.627 2.82-1.25 4.24-1.88 7.57-3.37 15.1-6.86 22.5-10.5 7.95-3.87 16-6.64 24.5-8.94 0.634-0.185 1.27-0.369 1.92-0.56 11.8-3.28 25.9-2.98 36.7 3 7.25 4.62 12.4 10.1 14.5 18.6 1.19 5.85 1.25 11.7 1.24 17.6-8.9e-4 1.15-2e-3 2.29-3e-3 3.47-0.158 11.4-2.06 20.7-7.37 30.9h-1c-0.11-0.773-0.219-1.55-0.332-2.34-1.48-9.74-3.06-17.9-10.7-24.7-10.2-7.13-20.4-7.96-32.5-6.44-8.58 1.57-16.5 5.07-24.5 8.44-1.2 0.493-1.2 0.493-2.42 0.995-8.99 3.71-17.4 7.25-24.6 14-0.908 0.846-1.82 1.69-2.75 2.56-8.23 8.92-13.5 17.7-13.4 30.2 0.278 4.17 1.23 8.2 2.15 12.3 0.286 1.31 0.286 1.31 0.578 2.64 0.467 2.12 0.943 4.24 1.42 6.36-1.02 0.159-2.03 0.317-3.08 0.48-20.1 3.33-36.1 13.4-52.7 24.7-37.3 25.2-75.6 50.8-123 42.7-22.7-4.42-45.1-13.3-62.4-28.9l-3.12-2.38c-4.5-4.11-8.12-8.84-11.9-13.6-0.77-0.942-1.54-1.88-2.33-2.86-5.99-7.56-10.1-15.3-13.7-24.1-0.362-0.878-0.724-1.76-1.1-2.66-7.18-21.1-0.164-45.2 9.1-64.3 11.3-22.1 31.1-35.5 54.1-43.7 23.8-7.42 46.4-7.88 70.9-3.31z" fill="#4A3F47" style="fill:#3fad3f"/><path d="m131 232h2c1.98 9.17 3.95 18.3 5.79 27.5 0.265 1.31 0.536 2.63 0.812 3.94 4.87 23.2 4.87 23.2 1.06 29.9-1.13 1.34-2.29 2.66-3.47 3.95-9.57 11.8-14.9 27.3-19.2 41.7-0.417 1.27-0.417 1.27-0.843 2.57-2.6 8.79-2.61 17.4-2.55 26.5 0.016 2.6 1.3e-4 5.21-0.019 7.81-0.029 22.6 4.96 44 15.4 64.1 0.335 0.654 0.67 1.31 1.02 1.98 12.4 23.9 29.7 41.4 53.2 54.4 2.81 1.6 2.81 1.6 3.81 2.6 0.13 1.74 0.191 3.49 0.225 5.23 0.0338 1.68 0.0338 1.68 0.0682 3.39 0.0708 5.14 0.129 10.3 0.167 15.4 0.0222 2.71 0.0639 5.42 0.123 8.13 0.0791 3.9 0.112 7.8 0.136 11.7 0.033 1.21 0.066 2.42 0.1 3.66-0.0136 5.72-0.0526 9.43-4.23 13.6-1.19 0.959-2.38 1.91-3.58 2.85-10.6 14.2-12.9 28-14.5 45.4-0.694 7.24-1.42 14.5-2.36 21.7-0.129 1.01-0.259 2.02-0.392 3.07-1.39 5.34-4.98 8.97-8.74 12.9-0.525 0.589-1.05 1.18-1.59 1.79-4.23 4.55-9.16 8.23-14.1 12-4.69 3.62-9.05 7.46-13.4 11.5-1.99 1.68-1.99 1.68-4.99 2.68-4.78-5.28-8.57-10.8-12.2-16.9-0.566-0.928-1.13-1.86-1.71-2.81-1.15-1.89-2.29-3.77-3.43-5.66-1.41-2.33-2.84-4.65-4.28-6.96-7.21-11.7-12.9-24.1-18.3-36.7-0.331-0.747-0.662-1.49-1-2.26-12.2-27.8-18.7-58.9-23.2-88.8-0.164-1.07-0.327-2.14-0.496-3.24-2.16-15-2.46-29.9-2.44-45 0.0013-0.927 0.0025-1.85 0.0038-2.81 0.056-21.5 1.58-42.3 5.06-63.6 0.123-0.755 0.246-1.51 0.372-2.29 1.68-10.2 3.9-20.1 6.75-30 0.315-1.12 0.63-2.23 0.955-3.38 4.2-14.7 8.66-29.3 14-43.6 0.32-0.858 0.64-1.72 0.97-2.6 10.6-28.1 26.3-53.4 43.8-77.6 1.21-1.72 2.34-3.48 3.47-5.26 0.588-0.831 1.18-1.66 1.78-2.52z" fill="#CB7000" style="fill:#2f8de1"/><path d="m324 135c2.71 3e-3 5.41-0.0203 8.12-0.0456 41.6-0.15 83.2 13.3 122 25.6 28 8.88 28 8.88 56.6 15.7 1.9 0.395 1.9 0.395 3.84 0.798 9.55 1.9 18.8 2.68 28.5 2.59 2.21-0.0161 4.42 0 6.63 0.019 26.1 0.04 50-9.14 71-24.4 4.41 2.21 5.59 9.71 7.12 14.3 6.02 18.8 11.3 38.8 10.9 58.7-0.689 0.1-1.38 0.2-2.09 0.304-18.3 2.55-18.3 2.55-35.9 7.7-0.983 0.362-0.983 0.362-1.99 0.731-12.8 4.74-25.1 10.5-37.4 16.3-25.9 12.3-50.2 10.4-77.2 1.13-9.44-3.44-18.7-7.47-27.9-11.4-10.6-4.53-21.4-8.43-32.5-11.8-1.11-0.365-2.22-0.73-3.37-1.11-43.5-10.7-86.1 1.49-124 23.1 1.48-3.94 3.33-7.54 5.31-11.2 10.1-19.9 16.6-49.4 10.1-71.2-4.91-12.4-13.7-21.8-22.4-31.6 8.98-5.98 23.4-4.34 33.8-4.32z" fill="#EB890C" style="fill:#f4c7a5"/><path d="m373 287c1.11 4e-3 1.11 4e-3 2.23 8e-3 26 0.136 50.1 5.85 74 16.3 1.51 0.647 3.02 1.29 4.52 1.94 16.6 7.17 32.1 14 40.5 31.1 2.51 7.54 1.25 15.1-1.68 22.4-2.21 4.39-5.05 7.98-8.32 11.6-0.574 0.655-1.15 1.31-1.74 1.98-19.3 20.7-46.3 28.1-73.8 29.1-5.5 0.131-11 0.0631-16.5-0.0889-1.15-0.0181-2.3-0.0361-3.48-0.0547-18.1-0.763-35.1-8.02-48.5-19.9-0.625-0.531-1.25-1.06-1.89-1.61-9.57-8.73-14.3-20-17.1-32.4-0.191-0.772-0.382-1.54-0.578-2.34-2.18-13.7-0.874-27.1 6.7-38.9 11.9-15.8 26.9-19.2 45.6-19.1z" fill="#04253A" style="fill:#020617"/><path d="m371 51.4c37.6-2.03 74.9 9.97 111 20 12.5 3.53 25.1 6.66 37.9 9.1 1.21 0.232 2.42 0.464 3.67 0.703 25.8 4.59 55.9 5.67 78.3-9.95 3.62-3.1 6.35-6.85 9.05-10.8 5.46 4.73 6.25 10 6.81 17 0.644 11.7-1.39 23.5-9.06 32.7-15.2 12.8-34.7 13.6-53.8 12.3-7.39-0.644-14.7-1.73-22-3-0.819-0.139-1.64-0.278-2.48-0.422-16.9-2.94-33.4-7.7-49.9-12.4-15.4-4.38-30.9-8.66-46.5-12.2-1.22-0.278-2.44-0.557-3.7-0.844-8.11-1.79-16.2-3.09-24.4-4.16 3.17 1.67 6.33 3.34 9.5 5 0.961 0.506 1.92 1.01 2.91 1.53 4.23 2.22 8.46 4.43 12.8 6.49 11.9 5.67 22.8 12.8 33.8 20-2 1-2 1-5.49-0.0391-1.5-0.523-3-1.05-4.49-1.59-9.32-3.21-18.7-5.89-28.3-8.38-0.814-0.213-1.63-0.426-2.47-0.646-15.7-4.08-31.3-7.57-47.3-10.4-0.946-0.176-1.89-0.353-2.87-0.535-14.9-2.72-29.8-2.75-44.9-2.78-1.01-0.0038-2.02-0.0075-3.06-0.0114-15.7-0.0442-15.7-0.0442-31.2 2.32 4.05-3.54 8.23-5.8 13.1-8.06 1.03-0.508 1.03-0.508 2.08-1.03 12.1-5.7 24.6-6.63 37.7-7.54 2.49-0.181 4.97-0.365 7.46-0.551 1.53-0.114 3.07-0.224 4.6-0.331 4.41-0.317 8.75-0.819 13.1-1.49-4.06-0.483-8.12-0.961-12.2-1.44-1.13-0.135-2.26-0.269-3.43-0.408-13.8-1.62-27.5-2.42-41.4-2.47-1.22-0.0039-1.22-0.0039-2.47-0.0079-12.5-0.0043-24.4 0.727-36.5 4.32-1 0.296-1 0.296-2.03 0.598-2.9 0.869-5.78 1.78-8.64 2.77-2.34 0.637-2.34 0.637-4.34-0.363 32.6-22.9 70.2-30.8 110-33.1z" fill="#4B3F47" style="fill:#2f8de1"/><path d="m218 500c2.35 2.35 3.02 4.24 4.21 7.34 0.433 1.11 0.867 2.23 1.31 3.37 0.465 1.21 0.93 2.42 1.41 3.66 0.489 1.26 0.978 2.51 1.47 3.77 2.04 5.23 4.06 10.5 6.07 15.7 7.43 19.3 14.9 36.4 27.1 53.1 1.31 1.84 2.56 3.7 3.79 5.59 4.48 6.86 9.36 12.1 15.5 17.4 2.95 2.68 5.21 5.59 7.55 8.83 8.43 11.1 18.8 20.7 28.7 30.5 2.16 2.14 4.3 4.28 6.45 6.43 2.6 2.59 5.2 5.18 7.8 7.76 0.482 0.481 0.965 0.961 1.46 1.46 7.43 7.39 15.1 14.3 23.2 21 0.949 0.772 1.9 1.54 2.88 2.34 0.701 0.568 1.4 1.14 2.12 1.72-2.8 1.4-4.15 0.605-7.14-0.223-1.04-0.288-2.09-0.576-3.16-0.872-1.68-0.479-1.68-0.479-3.39-0.968-1.14-0.326-2.29-0.652-3.46-0.987-8.55-2.48-16.7-5.25-24.8-8.95-0.837-0.376-1.67-0.752-2.54-1.14-25.6-11.6-47.4-25.5-67.6-45.1-1.62-1.56-3.26-3.08-4.91-4.61-12.5-11.8-26-29.6-27.1-47.4-0.047-4.53 0.094-8.88 0.71-13.4 0.59-4.64 0.711-9.24 0.786-13.9 0.0184-0.898 0.0368-1.8 0.0558-2.72 0.0583-2.86 0.111-5.71 0.163-8.57 0.255-13.7 0.682-27.5 1.5-41.2z" fill="#E9880A" style="fill:#f4c7a5"/><path d="m391 487c1.3-0.0168 2.61-0.0335 3.95-0.0508 3.36 0.363 3.36 0.363 5.38 1.63 0.98 1.73 0.98 1.73 0.797 3.65-0.856 2.18-1.8 4.25-2.88 6.33-0.362 0.706-0.724 1.41-1.1 2.14-0.277 0.531-0.554 1.06-0.84 1.61 0.585 0.281 1.17 0.562 1.77 0.852 2.06 1.06 3.94 2.24 5.87 3.52 4.49 2.83 9.17 4.78 14.1 6.69 0.817 0.325 1.63 0.651 2.48 0.986 11 4.34 22 7.66 33.6 10.1 1.16 0.251 2.33 0.503 3.53 0.762 14.7 3.1 28.6 4.46 43.6 4.36 1.29-6e-3 1.29-6e-3 2.62-0.0114 18.9-0.0964 36.9-1.6 55.4-5.05 1.29-0.236 2.57-0.472 3.89-0.715 9.07-1.79 17.7-4.32 26-8.47 3-0.25 3-0.25 6 0 2.47 3.71 2.34 5.45 1.7 9.73-1.31 4.22-4.09 5.95-7.7 8.27-0.972 0.638-1.94 1.28-2.95 1.93-15.9 9.76-33.4 13.3-51.6 16.6-1.84 0.334-3.68 0.696-5.51 1.07-9.88 1.25-20.1 0.642-30 0.379-0.673-0.0166-1.35-0.0332-2.04-0.0503-19.5-0.524-37.7-3.35-56.5-8.64-0.886-0.248-1.77-0.495-2.68-0.75-42.2-12-42.2-12-53.8-25.6-3.9 1.3-4.49 2.92-6.62 6.38-0.611 0.977-1.22 1.95-1.85 2.96-1.62 2.64-1.62 2.64-2.52 5.66-3.12 0.562-3.12 0.562-7 0-5.69-5.89-8.05-12.8-8.38-20.9 0.145-7.3 1.99-11.7 7.06-16.9 3.74-2.81 7.97-4.59 12.3-6.25 0.924-0.361 1.85-0.722 2.8-1.09 3.73-1.06 7.01-1.21 10.9-1.22z" fill="#05243B" style="fill:#020617"/><path d="m454 338c3.98 3.35 5.57 5.16 6.41 10.4-0.268 4.09-1.64 6.41-4.46 9.33-19.1 15.8-43.4 19.5-67.4 18.1-10.7-1.08-23.3-5.09-30.5-13.3-1.6-2.27-2.94-4.46-4.2-6.93-0.342-0.616-0.684-1.23-1.04-1.87-3.29-6.46-3.54-12.2-3.4-19.4-7e-3 -1.06-0.0142-2.12-0.0215-3.22 0.0449-5.5 0.17-8.94 3.46-13.5 23.9-19.1 80 4.39 101 20.5z" fill="#FDE38B" style="fill:#ffffff"/><path d="m621 312c3.6 3.25 4.39 6.15 4.78 11 0.123 3.2 0.152 6.38 0.156 9.58 0.0245 1.08 0.049 2.16 0.0742 3.28 0.0312 8.61-1.66 15.1-6.29 22.4-2.66 2.6-5.36 4.15-8.66 5.86-1.12 0.593-2.25 1.19-3.41 1.8-6.26 2.94-12.1 2.67-19 2.7-1.08 0.0206-2.15 0.0412-3.26 0.0625-10.1 0.0498-10.1 0.0498-14.9-3.31-1.64-1.72-1.64-1.72-2.81-3.5-0.398-0.588-0.797-1.18-1.21-1.78-4.04-7.07-1.8-15.9-0.0703-23.4 3.21-9.83 13.1-16 21.8-20.8 10.4-5 21.8-9.16 32.7-3.8z" fill="#FDE38B" style="fill:#ffffff"/><path d="m185 337c17.7 13.9 29.1 44.2 32.1 65.9 0.112 2.68 0.0463 5.32 0 8-3.83-1.56-6.11-4.11-9-7h-2c-4.92 11.4-4.31 20.9-3 33-9.08-3.16-17-6.95-21.9-15.6-5.24-11.4-6.99-22.1-3.04-34.2 0.881-2.08 1.85-3.72 3.19-5.53 1.94-2.49 1.94-2.49 1.88-5.06-2.07-4.82-4.99-9.24-9.44-12.1-6.02-1.12-11.7-0.578-17.7 0.5 1.7-9.85 3.35-18 10.9-24.9 5.22-3.62 11.9-6.45 18-3.05z" fill="#05243B" style="fill:#020617"/><path d="m644 362c3.43 5.15 5.38 10.8 6 17 0.0877 0.694 0.175 1.39 0.266 2.1 0.725 10.1-4.22 20.5-10.6 28.2-7.48 7.44-16.4 10.8-26.8 11-12.5-0.382-22.2-5.32-30.9-14.3-6.5-7.22-12.4-14.1-14-24 1.13 0.507 1.13 0.507 2.27 1.02 15.8 6.87 31 8.53 47.2 2.47 11-4.71 19.8-9.66 25.5-20.5l1-3z" fill="#4B3F48" style="fill:#3fad3f"/><path d="m570 566c-1.42 6.16-5.01 10.3-9 15-0.784 0.928-1.57 1.86-2.38 2.81-2.92 2.43-5.66 3.71-9.15 5.14-3.5 1.48-6.84 3.24-10.2 4.99-13.5 6.28-37.2 3.52-51.3-0.949-9.74-3.69-17.5-8.78-24-17v-2c19.3-0.346 19.3-0.346 26.3 1 6.12 1.12 12.1 1.19 18.3 1.19 0.954 6.4e-4 1.91 1e-3 2.89 2e-3 11.4-0.0866 22.1-1.56 33.2-4.15 2.08-0.484 4.16-0.957 6.25-1.43 7.22-1.63 7.22-1.63 14.3-3.72 2.69-0.894 2.69-0.894 4.69-0.894z" fill="#06233C" style="fill:#020617"/><path d="m279 172c0 3 0 3-1.5 4.76-0.679 0.636-1.36 1.27-2.06 1.93-3.34 3.22-6.44 6.53-9.46 10.1-1.95 2.23-3.96 4.41-5.98 6.59-3.82 4.12-7.53 8.24-11 12.7-5.45 6.95-11.5 13.3-17.6 19.8-10.4 11.3-18.8 23-26.4 36.2-3.62-10.9 5.04-31.7 9.66-41.8 3.65-7.06 8.06-13.2 13.3-19.2 0.58-0.674 1.16-1.35 1.76-2.04 12.2-13.2 32.1-23.9 49.2-29z" fill="#4D3F48" style="fill:#2f8de1"/><path d="m259 152c4.54 2.6 8.43 6.2 12 10v2l2 1c-1.94 0.346-1.94 0.346-3.92 0.699-10.1 1.87-19.6 4.01-29.1 8.3-1 0.441-2 0.882-3.04 1.34-16.1 7.52-28 19.2-38 33.7-1-2-1-2-0.215-4.87 4.85-13.5 11-23.9 21.2-34.1l2.51-2.51c9.35-8.87 22.9-18.7 36.5-15.5z" fill="#4D4048" style="fill:#2f8de1"/></svg>
