<svg width="860" height="860" version="1.1" xmlns="http://www.w3.org/2000/svg"><path d="m205 0c-19.7-6.14e-4 -38.7 22.5-49.4 36.1-2.23 3.12-4.24 6.28-6.2 9.58l-1.25 2.08c-14.4 24.2-22.1 51.8-15.8 79.9 2.73 10.4 6.01 21.5 11.7 30.7 1.35 2.3 1.35 2.3 1.29 4.36-1.21 2.49-2.96 4.02-4.94 5.94v2l-1.74 0.719c-2.75 1.56-4.37 3.39-6.45 5.78l-4.81 5.5c-1.46 1.58-2.92 3.17-4.38 4.75-98.2 220-111 434 41.4 571l2.37 2.21c7.04 6.55 14.6 12.3 22.3 18.1 2.26 1.7 4.5 3.42 6.74 5.15 56.6 43.2 125 66.7 196 74.6l2.8 0.324c10.2 1.02 20.5 0.877 30.7 0.863l3.04-4e-3c29-0.0698 56.9-2.91 85.5-8.18l3.11-0.572c26.6-5.13 53.2-15.4 77.9-26.4l2.28-0.996c18.1-7.93 35.4-18 51.7-29l1.92-1.29c9.3-6.24 18.3-12.8 27.1-19.7l2.68-2.09c5.17-4.07 10.1-8.34 15-12.8 2.03-1.85 4.09-3.66 6.17-5.45 10.5-9.16 20.2-18.7 29.6-28.9 1.44-1.57 2.89-3.13 4.35-4.68 6.21-6.68 11.8-13.7 17.2-21.1l1.69-2.25c6.77-9.04 13.5-18.1 19.3-27.7l2.06-3.36c82.6-136 57.7-342-17.1-450-7.25-9.61-15.2-19.2-22-27l-1.96-2.23c-5.59-6.3-11.4-12.3-17.4-18.3-1.54-1.55-3.08-3.1-4.61-4.65-6.36-6.4-13-12.2-20.1-17.8-1.33-1.1-2.65-2.2-3.98-3.3-6.77-5.6-13.6-11-20.8-16l-2.17-1.52c-3.04-2.12-6.09-4.21-9.19-6.24-6.4-4.31-10.8-9.28-15.3-15.4-11.2-15.3-24.7-28.8-39.6-40.5l-2.2-1.9c-26.7-22.8-61.9-34.6-95.8-41.1-1.48-0.299-2.96-0.599-4.45-0.898-34.6-6.8-72.1-6.32-107 0.898l-3.37 0.613c-24.6 4.54-48.7 12-72.4 19.5-49.5 15.6-49.5 15.6-74.4 4.73-12.5-6.81-18.6-21.1-22.9-34.1-1.29-3.63-2.49-6.78-5.79-9.07-2.82-1.01-5.64-1.47-8.46-1.47z" style="fill:#111827"/><path d="m650 334c1.02-0.0242 1.02-0.0242 2.05-0.0488 7.81-7e-3 14.2 3.23 20 8.36 11.9 13.3 14 29.3 13.2 46.5-1.71 25.2-11.7 50.4-30.3 67.9-14.1 12-30.5 21.2-49.3 21.8-0.762 0.0239-1.52 0.0477-2.31 0.0723-1.56 0.0431-3.13 0.0743-4.7 0.0937-5.28 0.192-8.45 1.09-12.6 4.66-3.81 4.47-3.83 9.88-4.44 15.5-1.04 8.56-2.7 16.4-5.56 24.5-0.652 2.16-1.3 4.33-1.94 6.5-3.48 11.2-7.93 21.7-13.4 32.1-0.808 1.55-0.808 1.55-1.63 3.13-10.6 20.1-10.6 20.1-16.4 26.9-0.759 0.895-1.52 1.79-2.3 2.71-0.767 0.879-1.53 1.76-2.32 2.66-0.757 0.879-1.51 1.76-2.29 2.66-3.88 4.43-7.85 8.45-12.4 12.2-3.2 2.86-6.16 5.92-9.16 8.98-5.75 5.82-11.7 11.1-18.2 16.1-1.02 0.81-2.03 1.62-3.08 2.45-32.2 25.5-72.7 42.9-113 50.5-1.7 0.34-3.39 0.68-5.09 1.02-51.8 10.1-121 12.6-168-17-15.7-10.9-23.9-24.8-27.5-43.3-1.6-9.37-2.25-18.9-3.08-28.3-0.404-4.46-0.814-8.92-1.23-13.4-0.0967-1.06-0.193-2.12-0.293-3.21-0.622-6.66-1.4-13.3-2.45-19.9-0.598-4.22-0.837-8.45-1.06-12.7-0.331-3.01-1.02-5.79-1.79-8.71-1.22-5.3-1.86-10.7-2.62-16.1-0.344-2.4-0.689-4.8-1.04-7.2-0.15-1.05-0.299-2.11-0.453-3.19-0.28-1.82-0.599-3.63-0.976-5.44-0.529-2.78-0.752-5.49-0.938-8.31-0.0769-1.12-0.154-2.24-0.233-3.39-0.0791-1.18-0.158-2.37-0.24-3.59-0.512-7.44-1.06-14.8-2.19-22.2-2.99-22.5-0.443-44.9 4.12-67 1.31 0.762 1.31 0.762 2.66 1.54 13.4 7.42 28.2 11.2 43.3 13.5-2.14 8.27-4.7 16.3-7.44 24.4-0.382 1.14-0.764 2.28-1.16 3.45-0.38 1.13-0.759 2.26-1.15 3.42-0.373 1.11-0.746 2.22-1.13 3.37-0.754 2.23-1.52 4.46-2.29 6.68-0.363 1.06-0.725 2.11-1.1 3.2-0.489 1.41-0.489 1.41-0.987 2.84-1.15 3.98-1.21 7.52-0.751 11.6 0.0825 0.824 0.165 1.65 0.25 2.5 0.928 6.35 2.91 11.2 7.75 15.5 8.91 5.63 18 8.06 28.4 8.85 0.779 0.0638 1.56 0.128 2.36 0.193 1.64 0.133 3.28 0.262 4.92 0.388 2.47 0.191 4.93 0.394 7.4 0.599 17.2 2.52 17.2 2.52 32.9-2.03 2.6-2.26 3.78-3.91 4.45-7.3 0.327-4.9-0.122-7.95-3.33-11.8-3.09-3.18-5.19-4.05-9.59-4.4-0.925-0.0768-1.85-0.154-2.8-0.233-1.5-0.119-1.5-0.119-3.04-0.24-1.03-0.085-2.06-0.17-3.12-0.258-3.3-0.272-6.6-0.539-9.89-0.805-3.29-0.266-6.58-0.534-9.86-0.805-2.05-0.169-4.1-0.335-6.14-0.498-0.934-0.0768-1.87-0.154-2.83-0.233-0.818-0.0658-1.64-0.132-2.48-0.199-2.5-0.279-4.92-0.739-7.37-1.27 0.545-5.65 1.64-10.5 3.58-15.8 0.255-0.725 0.511-1.45 0.774-2.2 1.08-3.06 2.17-6.11 3.27-9.17 3.87-10.8 6.98-21.6 9.37-32.8 5.62-1.52 11.2-1.12 17-1 0.902-0.0181 1.8-0.0361 2.73-0.0547 12 0.255 23.1 7.55 31.9 15.1 4.16 3.44 8.73 6.15 13.3 8.93 0.967 0.626 1.93 1.25 2.93 1.9 23.6 14.6 51.3 20.3 78.7 20.2 2.26-5e-3 4.51 0 6.77 6e-3 1.45-6.6e-4 2.89-2e-3 4.34-4e-3 1.3-1e-3 2.6-2e-3 3.93-3e-3 2.7-0.105 4.77-0.393 7.32-1.13 1.83-0.134 3.65-0.268 5.48-0.391 13.1-1.02 25.2-5.14 37.5-9.61 0.771-0.28 1.54-0.559 2.34-0.848 21.2-7.92 41.2-21.8 56.7-38.2 1.66-1.67 3.33-3.34 5-5 0.979-0.979 1.96-1.96 2.94-2.94l6.12-6.12c0.495-0.496 0.989-0.992 1.5-1.5 1.33-1.33 2.67-2.64 4.02-3.95 3.43-3.53 6.39-7.39 9.43-11.3 0.984-1.1 0.984-1.1 1.99-2.23h2c1.47 2.21 2.83 4.42 4.19 6.69 4.6 7.54 4.6 7.54 11.8 12.3 5.33 0.455 9.38 0.328 13.6-3.14 2.54-3.04 4.25-6.13 5.95-9.67 12.7-25 33.5-43 59.4-53.4 3.68-0.978 7.19-1.14 11-1.12z" fill="#FE7600" style="fill:#d5a478"/><path d="m649 115c5.26 2.9 10.2 6.09 15.1 9.56 0.741 0.526 1.48 1.05 2.25 1.59 11.5 8.21 22.4 17.1 33 26.4 1.14 0.996 2.3 1.98 3.45 2.96 5.95 5.09 11.5 10.6 17 16.1 1.64 1.63 3.28 3.26 4.92 4.88 6.56 6.53 12.5 13.2 18.3 20.5 1.56 1.84 3.12 3.67 4.69 5.5 6.83 8.21 13.1 16.8 19.3 25.5 0.584 0.817 1.17 1.63 1.77 2.48 18.8 26.6 33.5 56.8 44.2 87.5 0.397 1.12 0.794 2.25 1.2 3.4 8.45 24.1 14 48.8 17.7 74 0.104 0.716 0.207 1.43 0.314 2.17 2.74 19.2 3.05 38.3 3.06 57.6 6.7e-4 1.25 1e-3 2.5 2e-3 3.79-0.0153 17.9-0.317 35.3-3.25 53-0.257 1.64-0.257 1.64-0.52 3.31-5.17 32.4-14.5 64.5-27.5 94.7-0.52 1.22-0.52 1.22-1.05 2.46-10.7 24.9-24.2 47.9-39 70.5-8.34-2.67-16.5-5.69-24.6-9-6-2.44-12-4.86-18.1-7.04-5.28-1.9-10.4-4.08-15.5-6.34-6.24-2.71-12.5-5.34-18.9-7.69-8.57-3.16-17.1-6.43-25.5-9.95-2.37-0.952-4.76-1.78-7.17-2.6-4.19-1.54-8.13-3.12-11.3-6.38-2.23-5.3-2.59-10.3-2.85-16-0.288-5.66-0.906-11.3-1.46-16.9-0.119-1.27-0.237-2.54-0.359-3.85-1.04-10.7-2.74-21.2-4.59-31.7-3.33-19.1-5.55-38.3-7.74-57.5 0.539-0.231 1.08-0.461 1.63-0.699 15.7-6.85 30.1-15.5 43.4-26.3 0.955-0.771 1.91-1.54 2.89-2.34 24.1-20.5 37.4-54.8 40.1-85.7 1.25-22.6-1.42-43.3-15-62-0.602-0.835-1.2-1.67-1.82-2.53-2.53-3.38-4.6-6.08-8.11-8.47-2.06-2-2.06-2-2.4-4.06-0.0467-3.16 0.158-6.09 0.823-9.19 11.7-62.2-1.11-133-35.5-186-0.579-0.752-1.16-1.5-1.75-2.28-1.25-1.72-1.25-1.72-1.25-3.72z" fill="#0067A2" style="fill:#2f8de1"/><path d="m146 162c0.516 0.66 1.03 1.32 1.56 2 0.804 0.99 1.61 1.98 2.44 3 0.463 0.605 0.926 1.21 1.4 1.83 4.94 6.13 10.9 10.1 17.6 14.2-3.74 10.4-7.63 20.6-12.5 30.4-11.3 23.1-20.9 47.2-29.7 71.4-0.772 2.04-1.63 4-2.53 5.98-2.14 5.29-2.47 11-0.5 16.4 0.97 1.96 0.97 1.96 2.04 3.65 8.72 16 11.8 36.9 15.7 54.6 0.255 1.18 0.51 2.36 0.773 3.58 2.66 12.8 2.66 12.8-1.4 20.1-2.91 5.52-5.21 11.1-7.19 17-0.242 0.711-0.484 1.42-0.733 2.16-3.01 9.29-4.26 18.5-4.29 28.3-8e-3 0.98-0.0167 1.96-0.0252 2.97-0.0194 3.17-0.0195 6.33-0.0138 9.5 2.1e-4 1.09 4.3e-4 2.18 6.4e-4 3.3 0.0356 18.5 1.33 36.3 4.07 54.6 0.541 3.66 1.04 7.33 1.55 11 0.209 1.52 0.419 3.04 0.628 4.56 0.104 0.756 0.208 1.51 0.316 2.29 0.317 2.29 0.637 4.58 0.959 6.87 3.72 26.5 6.54 52.9 8.7 79.5 0.375 4.61 0.765 9.21 1.16 13.8 0.0751 0.886 0.15 1.77 0.227 2.68 0.222 2.56 0.459 5.11 0.702 7.67 0.063 0.744 0.126 1.49 0.191 2.25 0.542 5.44 2 10.3 3.88 15.4 0.365 1.08 0.73 2.16 1.11 3.27 6.47 17.8 18.3 33.8 33.9 44.7 0.791 0.567 1.58 1.13 2.4 1.72 15 10.2 31.5 15.9 48.8 20.5 4.28 1.17 8.53 2.46 12.8 3.76-3.65 3.23-6.72 4.8-11.4 6.19-13 4.08-26 8.98-38.2 14.9-6.45 3.09-13.2 5.25-20 7.43-4.94 1.58-9.69 3.31-14.4 5.45-0.629-0.641-1.26-1.28-1.91-1.94-0.856-0.865-1.71-1.73-2.59-2.62-0.835-0.847-1.67-1.69-2.53-2.57-2.2-2.18-4.5-4.21-6.85-6.23-4.11-3.56-7.81-7.4-11.5-11.4-0.651-0.702-1.3-1.4-1.97-2.13-1.3-1.4-2.59-2.8-3.88-4.21-1.52-1.64-3.04-3.28-4.57-4.91-6.51-7.01-12.4-14.4-18.2-22-0.488-0.636-0.975-1.27-1.48-1.93-42-54.9-70.4-117-81.7-186-0.155-0.928-0.31-1.86-0.47-2.81-3.18-20.2-3.75-40.4-3.72-60.8 9e-5 -0.683 1.8e-4 -1.37 2.8e-4 -2.07 4e-3 -21.2 0.638-41.8 4.37-62.7 0.289-1.72 0.289-1.72 0.584-3.47 8.71-51.6 27.8-103 56.4-147 1.04-1.62 1.04-1.62 2.11-3.27 13-19.8 27.3-39.9 44.5-56.3 1.63-1.58 1.63-1.58 3.71-4.34 0.557-0.681 1.11-1.36 1.69-2.06h2c0.371-0.835 0.371-0.835 0.75-1.69 1.47-2.71 3.28-4.95 5.25-7.31z" fill="#0067A3" style="fill:#2f8de1"/><path d="m469 258c2.73 2.25 5.11 4.6 7.51 7.2 1.26 1.04 2.53 2.06 3.81 3.06 3.7 3.21 6.38 6.95 9.19 10.9 0.527 0.738 1.05 1.48 1.6 2.24 4.19 5.92 8.11 12 11.9 18.1 0.565 0.918 1.13 1.84 1.71 2.78 3.52 5.72 6.97 11.5 10.3 17.3 1.44 2.48 2.95 4.91 4.47 7.35 2.51 4.19 4.74 8.48 6.88 12.9 0.311 0.618 0.621 1.24 0.941 1.87 2.04 4.33 2.79 7.69 2.18 12.4-1.58 3.07-1.58 3.07-3.81 6.12-0.604 0.831-0.604 0.831-1.22 1.68-4.67 6.33-9.75 12.3-15 18.2-0.446 0.504-0.892 1.01-1.35 1.53-3.16 3.55-6.38 7.03-9.65 10.5-0.508 0.537-1.02 1.07-1.54 1.63-11.5 12.1-23.6 21.7-38.5 29.4-0.66 0.343-1.32 0.686-2 1.04-10.3 5.29-20.7 9.3-32 12-1.06 0.26-2.11 0.519-3.2 0.787-10.2 2.31-20.1 2.73-30.5 2.65-0.837-3e-3 -1.67-5e-3 -2.54-8e-3 -12.3-0.0606-23.8-0.797-35.7-4.43-1.33-0.358-2.67-0.712-4.01-1.06-16.7-4.57-31.3-12.5-45-22.9-13.9-10.2-28.8-17.3-46.4-17.1-1.1 7e-3 -1.1 7e-3 -2.23 0.0137-1.8 0.0117-3.6 0.0296-5.39 0.0488 1.28-6.45 3.14-12.3 5.56-18.4 4.07-10 4.07-10 4.44-20.6-1.45-3.02-3.47-4.85-6-7-0.767-0.696-1.53-1.39-2.32-2.11-21.3-18.4-50.3-30.1-75.7-41.9-0.961-0.455-1.92-0.909-2.91-1.38-0.965-0.45-1.93-0.9-2.92-1.36-1.3-0.613-1.3-0.613-2.63-1.24-2.51-1.01-4.86-1.58-7.53-2.02 1.15-3.87 2.65-7.43 4.38-11.1 2.85-6.13 4.78-12.4 6.62-18.9 2.79 0.645 5.39 1.48 8.05 2.54 0.824 0.325 1.65 0.651 2.5 0.986 1.37 0.544 1.37 0.544 2.76 1.1 7.71 3.05 15.4 6.05 23.2 8.99 16 6.1 32 12.2 47.5 19.5 3.36 1.56 6.72 3.09 10.1 4.56 1.1 0.487 2.19 0.975 3.32 1.48 9.42 2.38 18.4-1.4 27.2-4.48 1.31-0.447 2.62-0.893 3.94-1.34 10.8-3.69 21.6-7.54 32.4-11.4 9.62-3.43 19.3-6.75 29-9.91 2.84-0.934 5.68-1.88 8.52-2.84 16.2-5.43 32.5-10.4 49-14.7 0.808-0.212 1.62-0.424 2.45-0.642 37.4-9.75 37.4-9.75 48.5-3.99z" fill="#D43300" style="fill:#3fad3f"/><path d="m599 545h1c0.105 0.977 0.105 0.977 0.212 1.97 1.48 13.7 3.21 27.2 5.38 40.8 0.964 6.1 1.74 12.2 2.28 18.3 1.35 15 3.88 31 7.86 45.6 0.349 3.01-0.37 4.05-2.09 6.51-0.533 0.775-1.07 1.55-1.62 2.35-0.586 0.814-1.17 1.63-1.77 2.47-0.892 1.27-0.892 1.27-1.8 2.56-4.71 6.61-9.73 12.8-15.1 18.9-1.86 2.12-3.66 4.28-5.46 6.45-4.98 5.95-10.1 11.7-15.4 17.4-1.99 2.16-3.93 4.34-5.85 6.57-7.77 8.9-15.5 17.5-24.8 24.8-3.29 2.66-6.36 5.51-9.45 8.41-4.18 3.92-8.42 7.6-13 11-2.43 1.89-4.74 3.87-7.06 5.88-6.12 5.3-12.4 9.77-19.3 14-1.23 0.786-2.46 1.57-3.68 2.37-8.39 5.4-16.9 10.2-25.9 14.5-2.81 1.36-5.6 2.76-8.39 4.16-11.8 5.87-23.2 11.1-36 14-0.959 0.217-1.92 0.435-2.91 0.659-26.9 6.02-59 10.7-84.3-3.35-14.5-9.56-23.2-25.4-27-42.1-2.23-11.9-3.99-24-3.74-36.2 10-1.35 20.1-2.23 30.2-2.88 15-0.993 29.9-2.87 44.8-5.12 0.771-0.114 1.54-0.228 2.33-0.346 41.9-6.45 87.3-25.9 121-51.4 1.73-1.29 3.49-2.53 5.27-3.77 6.01-4.19 11.8-8.47 17.2-13.4 2.5-2.26 5.09-4.38 7.71-6.5 7-5.7 13.7-11.3 19.6-18.2 1.91-2.21 3.89-4.35 5.89-6.48 9.38-10 17.2-20.9 24-32.8 0.574-0.978 0.574-0.978 1.16-1.98 8.29-14.3 13.6-29.4 18.8-45z" fill="#FD7700" style="fill:#d5a478"/><path d="m454 157c2.44-4e-3 4.88-0.0408 7.32-0.0786 27.8-0.198 54.6 9.89 74.7 29.5 6.85 7 12 14.4 16.8 22.9 0.721 1.15 0.721 1.15 1.46 2.32 21.5 35.2 10.2 85.4 1.54 123h-2c-0.45-1.01-0.9-2.01-1.36-3.05-7.68-16.9-17.2-32.6-27.4-48.1-1.11-1.68-2.19-3.37-3.28-5.06-5.04-7.81-10.7-15-16.6-22.2-1.1-1.34-2.19-2.68-3.27-4.03-4.69-5.65-10.2-10.2-16.1-14.6-0.681-0.519-1.36-1.04-2.06-1.57-9-6.25-19.9-6.92-30.6-6.8-1.04-0.0116-2.07-0.0232-3.14-0.0352-16.5 0.0602-32.3 4.21-48.1 8.66-0.874 0.243-1.75 0.487-2.65 0.737-15 4.18-29.7 8.93-44.2 14.6-4.54 1.78-9.12 3.24-13.8 4.56-8.23 2.33-16.3 5.08-24.4 7.88-1.22 0.424-2.45 0.847-3.71 1.28-5.46 1.9-10.9 3.83-16.3 5.82-4.08 1.49-8.15 2.86-12.3 4.08-1.68 0.503-1.68 0.503-3.39 1.02-5.19 1.13-9.81 1.36-14.7-0.766-1.31-0.557-1.31-0.557-2.64-1.12-2.11-0.971-4.2-1.97-6.28-3-9.6-4.72-19.4-8.58-29.5-12.2-12.1-4.42-23.7-9.35-35.2-15.1-2.96-1.45-5.98-2.73-9.03-3.99 0.563-3.34 2.01-5.95 3.68-8.87 3.77-6.61 6.44-13 8.52-20.3 1.85-6.36 4.6-12 7.8-17.8 4.7 0.4 8.89 1.2 13.4 2.63 15 4.64 28.9 6.05 44.5 6 1.33 7.4e-4 1.33 7.4e-4 2.7 2e-3 18.4-0.0493 36.3-2.29 54-7.19 1.27-0.345 2.53-0.69 3.84-1.05 18.3-5.09 35.8-12.2 53.3-19.6 12.2-5.14 24.5-9.33 37.2-12.8 1.2-0.335 2.4-0.67 3.63-1.02 12.5-3.32 24.7-4.36 37.6-4.35z" fill="#FD7600" style="fill:#d5a478"/><path d="m461 299c1.11-0.0184 1.11-0.0184 2.24-0.0371 5.75-0.0152 11 0.421 15.8 3.91 3.79 5.19 4.05 11.3 4 17.6-6e-3 0.779-0.0113 1.56-0.0171 2.36-0.519 25.7-8.38 52-24.3 72.4-0.456 0.608-0.913 1.22-1.38 1.84-10.6 13.3-26.7 22-42.6 27.2-1.13 0.391-1.13 0.391-2.29 0.789-7.46 2.35-14.7 2.67-22.4 2.6-2.07-0.016-4.13-1e-4 -6.2 0.019-25.8 0.0431-47.6-9.77-66.2-27.4-11.9-12.5-21.3-29.1-21.5-46.6 1.15-4.09 3.89-6.29 7.46-8.46 2.26-1.18 4.56-2.25 6.89-3.29 0.918-0.414 1.84-0.829 2.78-1.26 14.7-6.43 30-11.5 45.2-16.8 5.8-2.03 11.6-4.12 17.3-6.26 8.88-3.3 17.7-6.21 27-8.31 1.01-0.229 2.02-0.459 3.06-0.695 13.4-3.02 26.8-5.8 40.5-7.76 11-1.73 11-1.73 14.7-1.73z" fill="#011649" style="fill:#111827"/><path d="m641 669c4.91 1.53 9.58 3.2 14.2 5.38 3.77 1.75 7.55 3.35 11.4 4.81 15.3 5.78 30.3 12.3 45.3 18.8-1.34 3.01-2.8 5-5.19 7.25-2.55 2.46-4.9 4.98-7.19 7.69-5.94 6.87-13 12.4-20.1 18-2.41 1.97-4.67 4.04-6.94 6.17-6.92 6.31-14.6 11.6-22.2 17.1-2.96 2.17-5.87 4.39-8.78 6.61-7.27 5.55-14.7 10.6-22.6 15.1-0.848 0.495-0.848 0.495-1.71 1-4.72 2.75-9.49 5.39-14.3 8-0.919 0.502-1.84 1-2.78 1.52-31.2 17-64 27.8-98.7 35-1.21 0.255-1.21 0.255-2.45 0.516-8.34 1.74-16.6 3.3-25.1 3.92 3.03-3.25 6.57-4.96 10.5-6.94 15.2-7.86 29.2-17.2 42.7-27.7 1.68-1.29 3.38-2.56 5.1-3.81 5.69-4.18 11-8.54 16.2-13.3 2.52-2.27 5.14-4.38 7.8-6.48 5.02-4.06 9.53-8.48 14-13.1 4.97-5.05 10.2-9.7 15.7-14.1 2.96-2.58 5.42-5.29 7.96-8.27 2.23-2.59 4.54-5.09 6.85-7.61 4.04-4.43 7.9-8.96 11.7-13.6 1.82-2.25 3.65-4.49 5.5-6.71 5.8-7 11.4-14.1 16.7-21.5 0.513-0.698 1.03-1.4 1.56-2.12 2.77-3.9 4.36-6.85 4.69-11.8z" fill="#FDC100" style="fill:#ef4444"/><path d="m454 328c-1.85 19.5-7.34 39.4-21 54-0.557 0.598-1.11 1.2-1.69 1.81-13.1 12.6-30.7 17.5-48.4 17.4-17.7-0.991-33.7-9.02-45.9-21.8-8.21-9.81-8.21-9.81-7.81-14.4 0.826-1.99 0.826-1.99 2.69-3.12 0.812-0.299 1.62-0.598 2.46-0.906 0.915-0.347 1.83-0.693 2.77-1.05 1-0.361 2-0.722 3.03-1.09 2.13-0.796 4.26-1.59 6.39-2.39 1.09-0.403 2.18-0.806 3.3-1.22 2.9-1.1 5.77-2.25 8.63-3.44 24.2-10 49.7-17.2 75.6-21.8 1.04-0.185 2.08-0.371 3.16-0.562 5.73-0.991 11-1.66 16.8-1.44z" fill="#FDFDF2" style="fill:#ffffff"/><path d="m309 547c3.39 0.259 6.77 0.499 10.2 0.737 11.3 0.834 22.6 1.99 33.8 3.76 1.03 0.161 2.06 0.323 3.11 0.489 16.6 2.76 16.6 2.76 22.4 8.87 2.73 4.16 2.51 7.84 1.74 12.6-2.06 4.04-4.23 6.54-8 9-6.61 1.92-12.7 0.665-19.2-1.11-12.8-3.03-25.9-3.76-39.1-4.57-1.07-0.069-2.15-0.138-3.25-0.209-14.3-0.886-28.5-1.2-42.8-0.932-0.727 0.0134-1.45 0.0268-2.2 0.0406-7.21 0.138-14.4 0.316-21.6 0.562-2.04 0.0674-4.08 0.126-6.13 0.182-2.51 0.0712-5.02 0.159-7.52 0.267-6.4 0.171-10.3 0.203-15.1-4.22-4.93-5.6-4.93-5.6-5.09-8.88 0.438-6.44 2.62-10.5 7.09-15.1 2.27-1.14 3.7-1.19 6.22-1.3 0.876-0.04 1.75-0.0799 2.66-0.121 0.955-0.0386 1.91-0.0772 2.89-0.117 0.993-0.043 1.99-0.0859 3.01-0.13 2.12-0.0904 4.23-0.179 6.35-0.265 3.17-0.13 6.33-0.268 9.5-0.408 20.5-0.881 40.6-0.755 61.1 0.827z" fill="#02154A" style="fill:#111827"/><path d="m164 331c6.78 0.931 12.7 3.46 19 6 0.915 0.336 1.83 0.673 2.77 1.02 14.1 5.38 30 13.7 41.2 24 1.23 3.69 0.626 4.61-0.801 8.15-0.6 1.51-0.6 1.51-1.21 3.05-0.643 1.57-0.643 1.57-1.3 3.18-0.417 1.04-0.834 2.08-1.26 3.16-1.13 2.83-2.28 5.65-3.42 8.47-0.508 1.37-0.508 1.37-1.03 2.76-0.974 2.24-0.974 2.24-2.75 3.53-8.5 2.72-17.5 0.573-25.2-3.29-9.85-5.93-15.9-14.1-18.8-25.2-0.804-3.5-1.55-7.01-2.28-10.5-0.5-2.38-1-4.76-1.51-7.14-0.215-1.04-0.431-2.08-0.653-3.16-0.68-3.08-0.68-3.08-1.79-6.22-0.921-2.79-1.09-4.88-0.922-7.79z" fill="#FCFDF2" style="fill:#ffffff"/><path d="m270 759c1.96 7.58 3.7 15.2 5.3 22.9 0.545 2.47 1.15 4.86 1.88 7.27 0.812 2.88 0.812 2.88 0.812 6.88-12.8-3.95-24.5-12.1-36-18.8-1.67-0.975-3.36-1.92-5.05-2.86-0.639-0.428-1.28-0.856-1.94-1.3v-2c7.41-3.27 14.9-6.12 22.6-8.81 0.881-0.314 1.76-0.628 2.67-0.951 0.832-0.291 1.66-0.581 2.52-0.881 0.746-0.261 1.49-0.523 2.26-0.792 1.99-0.563 1.99-0.563 4.99-0.563z" fill="#FAC301" style="fill:#ef4444"/></svg>
