<svg width="864" height="864" version="1.1" xmlns="http://www.w3.org/2000/svg"><g transform="translate(-75.6 -64.1)"><path d="m312 65.3c-16.6-1.91-31.4 13.8-42.7 24.7l-2.02 1.86c-21.6 20.3-40.2 52.7-42.2 82.4-0.221 8.1 0.831 15.7 2.37 23.6l0.377 2.02c0.444 2.14 0.446 2.13 1.27 4.34 0.771 2.38 1.26 4.24 1.2 6.74-1.81 3.05-4.33 5.04-7.06 7.25-1.49 1.3-2.99 2.6-4.48 3.91l-2.28 1.95c-3.17 2.76-6.16 5.67-9.12 8.64l-1.61 1.61c-4.07 4.13-7.75 8.49-11.3 13-2.09 2.59-4.29 5.03-6.54 7.48-5.23 5.77-9.96 11.9-14.6 18.1l-1.57 2.13c-9.4 12.9-17.8 26.3-25.8 40.1-1.35 2.32-2.72 4.62-4.1 6.93-43.7 73.9-58.6 165-38.8 281 1.14 4.34 2.33 8.66 3.55 13 0.678 2.4 1.32 4.8 1.95 7.21 6.9 25.9 18.6 50.9 30.9 74.7 0.63 1.22 1.25 2.45 1.88 3.67 12.4 24.4 28.2 46.4 45.7 67.5 2.04 2.48 4.04 4.98 6.05 7.48 4.05 4.95 8.33 9.65 12.7 14.3 2.49 2.7 4.95 5.42 7.39 8.17 4.69 5.22 9.41 10.5 14.9 14.8 2.06 1.68 3.51 3.22 5.19 5.25 3.37 4.03 7.18 7.31 11.2 10.7l2.84 2.46c17.1 14.8 35.4 27.5 55.2 38.5 1.73 0.997 3.47 1.99 5.2 2.99 2.92 1.69 5.86 3.35 8.8 5.01l3.34 1.89c55.1 30.4 121 46.3 183 46.4l2.63 2e-3c58.3-0.0711 116-12.6 169-37.1 2.23-1.03 4.47-2.03 6.72-3.01 11.8-5.27 22.9-11.9 34-18.5 2.18-1.28 4.38-2.53 6.6-3.75 16.1-8.82 30.8-19.9 44.7-31.8 1.79-1.53 3.6-3.04 5.41-4.54 8.89-7.43 17.1-15.4 25.3-23.6 2.11-2.13 4.23-4.25 6.35-6.37 1.37-1.38 2.74-2.75 4.12-4.13l1.88-1.88c4.29-4.34 8.33-8.85 12.3-13.5l2.6-2.96c11.3-13.1 21.6-27.2 31-41.8 1.03-1.6 2.07-3.19 3.11-4.77 9.77-14.9 18-30.1 25.3-46.4l1.44-3.2c15.9-35.7 28.4-74.8 32.6-114l0.252-2.21c1.8-16.1 2.11-32 2.06-48.2l-6e-3 -3.87c-0.252-93.1-30.9-179-103-269-1.89-2.09-3.74-4.21-5.58-6.35-3.89-4.45-8-8.63-12.2-12.8l-2.16-2.17c-4.08-4.08-8.27-7.98-12.6-11.7-2.17-1.88-4.28-3.83-6.39-5.78-5.16-4.66-10.6-8.92-16.1-13.2-1.1-0.859-2.2-1.72-3.3-2.58l-1.64-1.26c-3.3-2.62-5.47-5.09-7.54-8.74-4.24-6.96-9.43-12.9-14.8-19l-2.46-2.8c-31-34.9-73.9-58.3-120-67.2l-2.39-0.469c-5.19-0.992-10.4-1.81-15.6-2.53l-2.25-0.316c-51.1-6.86-101 3.51-151 15.8-12.9 3.22-25.8 6.31-38.8 9.19l-2.27 0.504c-20.6 4.57-38.1 6.79-56.9-4.44l-2.3-1.52c-2.03-1.39-2.03-1.39-4.95-2.23-1.04-1.79-1.04-1.79-2-4l-1.15-2.05c-3.42-6.3-5.16-12.6-6.66-19.5-1.65-4.75-4.52-7.05-8.31-10.2-2.44-1.06-4.84-1.69-7.21-1.96z" style="fill:#111827"/><path transform="translate(752 388)" d="m0 0c0.932 0.626 0.932 0.626 1.88 1.27 1.06 0.688 1.06 0.688 2.13 1.39 11.7 8.17 16.3 19.9 18.9 33.6 0.552 3.67 0.838 7.29 1 11 0.0793 1.68 0.0793 1.68 0.16 3.39 0.646 26.4-7.95 52.8-24.2 73.6-0.674 0.879-1.35 1.76-2.04 2.66-1.94 2.49-3.93 4.92-5.96 7.34-0.517 0.615-1.03 1.23-1.57 1.86-12.9 14.1-33.7 22.1-52.5 23.3-2.91 0.119-5.81 0.235-8.72 0.307-5.41 0.234-9.56 1.29-13.8 4.92-1.63 1.9-2.15 3.32-2.81 5.73-0.231 0.821-0.463 1.64-0.701 2.49-0.24 0.89-0.481 1.78-0.728 2.7-0.536 1.91-1.07 3.83-1.61 5.74-0.277 1-0.554 2-0.839 3.03-10.6 38.2-23.6 72.8-48.7 104-0.77 0.975-1.54 1.95-2.33 2.95-12.7 15.6-27.3 30.2-43.7 42-0.868 0.663-1.74 1.33-2.63 2.01-48.4 36.5-107 53.5-167 53.4-1.01-8.7e-4 -2.01-2e-3 -3.05-3e-3 -26.2-0.075-50.4-4.04-75.5-11.4-0.772-0.223-1.54-0.446-2.34-0.676-19.4-5.72-49.2-15.9-59.7-34.3-5.89-11.7-7.28-23-7.34-36-0.0146-1.23-0.0292-2.45-0.0443-3.71-0.0461-3.9-0.0804-7.8-0.112-11.7-0.165-20-0.898-39.7-2.5-59.6-0.121-1.56-0.243-3.12-0.364-4.67-0.295-3.65-0.613-7.3-0.949-11-0.0596-0.65-0.119-1.3-0.181-1.97-2.96-32-6.06-64.4-12.6-95.8-3.29-16.2 1.28-30.1 6.11-45.6 0.527-1.72 1.05-3.44 1.58-5.16 1.11-3.62 2.26-7.23 3.42-10.8 0.58 0.727 1.16 1.45 1.76 2.2 0.74 0.923 1.48 1.85 2.24 2.8 0.924 1.17 0.924 1.17 1.87 2.36 11.9 14.1 29.3 21.2 46.1 27.6-1.76 5.53-3.72 10.9-5.93 16.3-1.55 3.77-3.05 7.56-4.56 11.4-0.791 1.97-1.59 3.93-2.41 5.89-5.89 14.2-9.74 28-7.1 43.5 2.95 6.3 7.94 9.36 14.2 12 5.46 1.93 11.1 3.18 16.7 4.5 2.03 0.486 4.04 1.01 6.06 1.54 23.4 6.84 23.4 6.84 46.7 4.46 0.763-0.495 1.53-0.99 2.31-1.5h2c2.37-4.59 2.57-8.95 2-14-2.16-5.73-6.78-7.39-12-10-1.44-0.229-2.89-0.415-4.34-0.578-15.5-1.85-30.1-4.78-44.7-10.4 1.94-6.64 4.05-13.2 6.36-19.7 0.306-0.874 0.613-1.75 0.929-2.65 0.966-2.75 1.93-5.5 2.9-8.25 0.661-1.88 1.32-3.76 1.98-5.64 1.61-4.58 3.22-9.15 4.83-13.7 7.78 2.17 15.2 4.97 22.6 8.06 1.19 0.487 2.37 0.974 3.6 1.48 5.55 2.28 11.1 4.59 16.6 6.95 11.3 4.82 22.7 9.3 34.2 13.5 1.54 0.564 3.08 1.13 4.61 1.7 15 5.57 30.3 9.88 46.4 10.3 0.746 0.0205 1.49 0.0409 2.26 0.062 50.7 1.21 102-14.8 140-49.5 1.45-1.32 2.9-2.64 4.4-3.91 7.38-6.26 14.1-13.2 20.9-20.1 1.31-1.32 2.62-2.63 3.94-3.95 3.19-3.2 6.38-6.41 9.56-9.61 1.28 2.57 0.766 3.35 0 6.06-1.13 4.83-1.43 9.14 0 13.9 3.09 4.14 5.98 5.9 11 7 5.14 0.451 7.82-0.0049 12-3 1.87-2.31 1.87-2.31 3.42-5 0.596-0.981 1.19-1.96 1.81-2.97 2.73-4.67 5.4-9.37 8.02-14.1 16.4-29.2 16.4-29.2 24.8-38.9 0.65-0.793 1.3-1.59 1.97-2.4 13.6-16 37.9-31.7 59.1-19.9z" fill="#FE8500" style="fill:#d5a478"/><path transform="translate(755,186)" d="m0 0c5.33 2.83 9.69 6.06 14.2 10.1 0.648 0.569 1.3 1.14 1.96 1.73 5.05 4.46 10 8.99 15 13.6 2.21 2.02 4.44 3.98 6.7 5.94 4.37 3.82 8.52 7.84 12.6 11.9 0.745 0.745 1.49 1.49 2.26 2.26 4.69 4.73 9.08 9.53 13.2 14.8 1.91 2.39 3.9 4.64 5.95 6.91 4.06 4.54 7.76 9.26 11.4 14.1 0.644 0.866 1.29 1.73 1.95 2.62 11.7 15.8 22.2 32 31.9 49 0.577 1.01 0.577 1.01 1.17 2.04 2.41 4.26 4.66 8.58 6.83 13 0.399 0.799 0.797 1.6 1.21 2.42 27.4 55.5 39.3 117 39.1 178-1e-3 1.27-3e-3 2.55-5e-3 3.86-0.0388 18.7-0.487 37.1-3.31 55.6-0.185 1.35-0.185 1.35-0.374 2.73-2.65 19.1-8.27 37.8-13.6 56.3-0.352 1.22-0.703 2.44-1.07 3.69-4.38 14.9-10.2 28.9-16.5 43.1-0.536 1.2-0.536 1.2-1.08 2.43-6.41 14.3-13.3 28.1-21.9 41.3-0.536 0.839-1.07 1.68-1.62 2.54-1.29 2.01-2.58 4.02-3.88 6.02-10.8-3.61-21.2-7.7-31.5-12.5-3.8-1.78-7.61-3.54-11.4-5.29-0.767-0.354-1.53-0.709-2.33-1.07-6.04-2.78-12.1-5.49-18.2-8.13-2.42-1.05-4.84-2.12-7.25-3.2-5.93-2.62-11.8-4.98-18-6.9-23.4-7.28-23.4-7.28-28.1-14.8-2.34-6.68-2.72-13.5-2.9-20.6-0.21-7.74-1.54-15.2-2.87-22.8-0.684-4-1.3-8.01-1.92-12-0.123-0.794-0.247-1.59-0.374-2.4-1.24-7.98-2.46-16-3.66-23.9-0.22-1.47-0.442-2.94-0.666-4.41-0.309-2.03-0.611-4.07-0.911-6.1-0.171-1.15-0.343-2.29-0.519-3.47-0.38-3.46-0.426-6.83-0.364-10.3 1.04-0.51 2.08-1.02 3.16-1.55 33.9-17 58.7-44.5 71.8-80.1 2.08-6.36 3.68-12.8 5.09-19.3 0.152-0.692 0.305-1.38 0.462-2.1 6.25-29.2 2.95-60.7-12.8-86.5-1.98-2.88-4.1-5.09-6.68-7.43v-2c-0.99-0.33-1.98-0.66-3-1 0.143-2.6 0.29-5.21 0.438-7.81 0.0393-0.719 0.0786-1.44 0.119-2.18 0.231-4.04 0.548-8.04 0.971-12.1 0.692-7.43 0.625-14.9 0.598-22.3-0.0016-0.75-0.0031-1.5-0.0047-2.27-0.0294-12.1-0.241-24.2-1.12-36.4-0.0538-0.799-0.108-1.6-0.163-2.42-2.33-33.1-11.3-68.8-28.1-97.6-1.71-2.99-1.71-2.99-1.71-4.99z" fill="#006DAA" style="fill:#2f8de1"/><path transform="translate(231,210)" d="m0 0c2.26 2.9 4.13 5.9 6 9.06 4.12 6.58 9.36 11.7 15 16.9-1.29 4.08-2.8 7.92-4.62 11.8-0.777 1.66-0.777 1.66-1.57 3.36-0.557 1.19-1.11 2.37-1.69 3.59-0.588 1.26-1.18 2.51-1.76 3.77-1.2 2.58-2.41 5.16-3.62 7.74-2.56 5.47-5.09 10.9-7.62 16.4-0.48 1.04-0.959 2.08-1.45 3.15-4.51 9.77-8.95 19.6-13.4 29.4-3.92 8.64-7.83 17.3-12 25.8-3.73 7.51-3.73 7.51-3.23 15.6 0.571 1.29 1.17 2.56 1.78 3.83 0.317 0.692 0.634 1.38 0.96 2.1 0.674 1.46 1.36 2.92 2.05 4.37 1.04 2.18 2.05 4.36 3.05 6.56 3.72 8.02 7.78 15.5 12.8 22.8 1.37 2.74 1.37 2.74 1.27 5.07-1.27 3.72-2.6 7.4-4.01 11.1-0.64 1.68-1.28 3.37-1.92 5.05-0.335 0.877-0.669 1.75-1.01 2.66-12.7 30.2-12.7 30.2-19 61.9-0.0799 1.25-0.16 2.5-0.242 3.79-0.76 18.2 2.93 36.5 5.93 54.4 0.147 0.879 0.295 1.76 0.447 2.66 0.149 0.89 0.299 1.78 0.453 2.7 2.64 15.7 5.08 31.4 6.73 47.3 0.0751 0.707 0.15 1.41 0.228 2.14 0.559 5.34 1.02 10.7 1.46 16 0.0881 1.05 0.176 2.1 0.267 3.18 1.18 14.5 1.91 28.8 1.82 43.3-4e-3 0.686-0.0079 1.37-0.012 2.08-0.0416 6.29-0.114 12.6-0.194 18.9-0.336 27.6-0.524 56.9 19.7 78.2 15.2 15.4 35.7 23.3 55.4 31.3v3c-18.3 10.3-37 19.3-56 28-0.776-0.78-1.55-1.56-2.35-2.36-2.42-2.41-4.9-4.69-7.46-6.95-6.53-5.85-12.6-11.9-18.4-18.6-1.99-2.29-4.03-4.51-6.08-6.73-4.55-5.04-8.72-10.3-12.9-15.7-1.89-2.43-3.8-4.83-5.75-7.21-14.2-17.4-26.2-35.9-37.1-55.5-0.432-0.764-0.863-1.53-1.31-2.31-43-76.6-61.4-172-35.7-295 13.8-49.3 36.8-96.1 68.1-137 0.444-0.582 0.888-1.16 1.35-1.76 16.5-21.5 34.7-43 55.7-60.2z" fill="#006EAA" style="fill:#2f8de1"/><path transform="translate(561,317)" d="m0 0c5.64 3.8 9.51 9.07 13.7 14.4 1.36 1.71 2.74 3.4 4.13 5.09 6.96 8.53 13.4 17.3 19.7 26.4 1.49 2.13 3.01 4.23 4.54 6.34 17.4 24 17.4 24 22 36.8-6.45 7.19-13.1 14.2-20 20.9-2.93 2.88-5.72 5.82-8.4 8.93-3.99 4.61-8.25 8.91-12.6 13.2-1.14 1.15-1.14 1.15-2.3 2.31-4.2 4.19-8.49 8.18-13 12-2.42 2.15-4.58 4.51-6.77 6.89-24.1 24.7-66.2 36.2-99.6 37.1-10.7 0.0778-21-1.1-31.4-3.42-0.705-0.15-1.41-0.301-2.14-0.456-25.2-5.51-49.2-16.2-72.5-27-3.26-1.51-6.53-2.99-9.8-4.46-1.93-0.884-3.87-1.77-5.8-2.66-1.32-0.59-1.32-0.59-2.67-1.19-0.794-0.371-1.59-0.742-2.41-1.12-0.69-0.315-1.38-0.631-2.09-0.955-1.58-1.17-1.58-1.17-2.38-3.06-0.358-3.75 1.37-7.15 2.67-10.6 0.645-1.78 1.29-3.56 1.93-5.34 0.35-0.973 0.7-1.95 1.06-2.95 2.14-6.04 4.19-12.1 6.2-18.2 0.627-1.83 0.627-1.83 1.27-3.71 0.377-1.15 0.754-2.3 1.14-3.48 0.343-1.02 0.686-2.05 1.04-3.11 0.56-3.11 0.246-4.14-1.51-6.71-14.6-15.9-37.6-25.3-56.6-34.8-7.79-3.88-15.5-7.85-23.3-11.8-2.5-1.29-5.01-2.57-7.51-3.85-1.6-0.823-3.21-1.65-4.81-2.47-0.744-0.38-1.49-0.76-2.25-1.15-2.96-1.53-5.79-3.07-8.57-4.92 1.28-4.03 2.76-7.81 4.6-11.6 0.49-1.02 0.98-2.04 1.48-3.09 0.508-1.05 1.02-2.09 1.54-3.17 0.516-1.07 1.03-2.14 1.56-3.24 1.27-2.63 2.54-5.26 3.81-7.88 3.1 0.636 5.45 1.69 8.18 3.3 0.816 0.477 1.63 0.953 2.47 1.44 0.879 0.517 1.76 1.03 2.66 1.57 38.4 22.2 81 44.8 126 33 2.82-0.786 5.64-1.6 8.45-2.43 1.04-0.306 2.08-0.611 3.15-0.926 11.4-3.4 22.7-7.21 34-11.1 2.19-0.747 4.37-1.49 6.56-2.24 20.7-7.1 41.3-14.5 61.9-22.1 1.01-0.369 2.01-0.738 3.05-1.12 1.77-0.65 3.53-1.3 5.29-1.96 14.2-5.23 30-9.59 44-1.45z" fill="#E03500" style="fill:#3fad3f"/><path transform="translate(689,584)" d="m0 0c1.47 2.72 2.36 5.1 2.9 8.14 0.221 1.22 0.221 1.22 0.446 2.46 0.152 0.875 0.304 1.75 0.461 2.65 0.164 0.918 0.328 1.84 0.497 2.78 0.532 2.99 1.05 5.98 1.57 8.97 0.179 1.02 0.357 2.04 0.541 3.08 4.05 23.1 7.88 46.2 9.41 69.6 0.148 1.94 0.386 3.87 0.645 5.79 0.973 9.98-5.11 17.6-10.5 25.5-0.502 0.746-1 1.49-1.52 2.26-5.79 8.53-11.9 16.8-18.5 24.7-0.416 0.5-0.832 0.999-1.26 1.51-8.76 10.5-17.8 20.7-27.6 30.2-2.21 2.05-2.21 2.05-3.19 4.25h-2c-0.235 0.561-0.469 1.12-0.711 1.7-4.29 7.66-12.7 13.6-19.3 19.3-1.08 0.942-2.16 1.88-3.23 2.83-18.6 16.3-37.6 32.3-58.8 45.2-0.905 0.584-1.81 1.17-2.74 1.77-37.9 24.2-86.5 46-132 36.2-16.3-3.87-30.1-11-39.5-25.2-8.24-13.6-15.5-29.3-15.5-45.5 3e-3 -0.808 7e-3 -1.62 0.01-2.45 4e-3 -0.614 8e-3 -1.23 0.0128-1.86 1.89 0.0157 1.89 0.0157 3.83 0.0317 70.5 0.532 138-9.56 197-51 1.37-0.949 2.75-1.9 4.12-2.85 8.25-5.73 16.2-11.6 23.9-18.2 1.01-0.828 2.02-1.66 3.07-2.51 12.2-10 23.3-21 32.9-33.5 0.993-1.24 1.99-2.48 2.98-3.72 19-23.9 33.2-50.5 43-79.3 0.455-1.33 0.455-1.33 0.918-2.68 3.37-9.99 6.15-19.9 8.08-30.3z" fill="#FE8500" style="fill:#d5a478"/><path transform="translate(614 245)" d="m0 0c2.28 2.01 4.53 4.05 6.75 6.12 0.786 0.73 1.57 1.46 2.38 2.21 15.6 15.9 19 38.9 18.8 60.1-0.355 15.5-3.86 30.6-7.22 45.6h-2c-1.23-1.77-1.23-1.77-2.75-4.38-11.7-18.8-27.1-35.5-42.2-51.6-0.661-0.727-1.32-1.45-2-2.2-11.3-12-23.9-18.7-40.6-19.3-28.9 0.476-57.1 14.1-83.7 24-95.6 35.5-95.6 35.5-140 15.2-15-6.88-29.7-14.2-43.6-23.1-0.848-0.541-1.7-1.08-2.57-1.64-2.04-1.3-4.08-2.61-6.12-3.92 0.632-4.33 2.24-7.95 4.16-11.8 0.309-0.637 0.619-1.27 0.937-1.93 0.983-2.02 1.97-4.04 2.96-6.05 0.67-1.37 1.34-2.75 2.01-4.12 1.64-3.36 3.28-6.71 4.93-10.1 5.7 1.67 11.3 3.44 16.9 5.44 56.1 19.3 112-1.2 164-21 18.6-6.96 37.3-13.6 56.8-17.5 1.65-0.336 1.65-0.336 3.34-0.68 31.2-5.42 64.4-0.298 88.9 20.6z" fill="#FE8500" style="fill:#d5a478"/><path transform="translate(560,362)" d="m0 0c4.73 4.49 6.72 9.87 7.29 16.3 0.67 28.7-10.6 57.2-29.3 78.7-0.632 0.732-1.26 1.46-1.91 2.22-18.1 19.5-45.7 30-71.9 31-24.3 0.597-47.7-6.03-66.2-22.2-0.982-0.785-1.96-1.57-2.98-2.38-11.8-9.81-21.9-27.6-24.4-42.8-0.266-3.59 0.122-5.55 2.22-8.48 17.8-13.6 40.2-21.1 61.1-28.4 1.19-0.412 1.19-0.412 2.4-0.832 23-7.96 46.1-15.1 69.7-21 1.01-0.253 2.03-0.506 3.07-0.766 38.5-9.53 38.5-9.53 50.9-1.42z" fill="#001B4E" style="fill:#111827"/><path transform="translate(735,715)" d="m0 0c10.2 3.63 20 7.68 29.7 12.4 3.44 1.66 6.9 3.29 10.4 4.92 0.679 0.321 1.36 0.642 2.06 0.973 8.86 4.17 17.9 8 26.9 11.8-7.13 13.1-18.1 23.3-28.6 33.8-0.53 0.535-1.06 1.07-1.61 1.62-6.94 6.99-14.1 13.5-21.8 19.6-1.25 1.02-2.51 2.05-3.76 3.08-51 41.5-113 70.1-177 83.9-0.847 0.183-1.69 0.366-2.57 0.555-13.5 2.86-13.5 2.86-17.4 1.44 1.35-0.675 1.35-0.675 2.72-1.36 10-5.12 19.2-11.1 28.3-17.6 0.748-0.539 1.5-1.08 2.27-1.63 11.1-8.02 21.9-16.3 32.7-24.8 1.93-1.51 3.86-3 5.81-4.48 8.02-6.15 15.4-12.8 22.8-19.7 2.43-2.28 4.94-4.46 7.46-6.64 8.86-7.69 17.2-15.8 25.5-24.1 2.05-2.05 4.11-4.09 6.17-6.13 15.7-15.7 27.8-33 39.7-51.7 3.42-5.39 6.89-10.7 10.7-15.8z" fill="#FDD000" style="fill:#ef4444"/><path d="m501 562c12.4-0.715 25.2 4.35 35 11.6 9.25 8.25 15.3 21.5 16.3 33.7 0.178 5.56 0.249 10.3-3.27 14.9-4.91 3.59-10.1 3.82-16 3-5.87-2.55-8.61-7.26-11-13v-3h-2c-0.268 0.584-0.536 1.17-0.812 1.77-11.9 22.3-42.2 34.8-65 41.9-51.7 15.4-117 17.1-167-6.02-3.97-2.15-5.56-3.33-6.98-7.61-0.507-5.29-0.648-9.66 1.69-14.5 3.58-3.87 6.21-5.66 11.5-6 4.84 0.142 9.21 1.37 13.8 2.75 7.69 2.31 15.4 3.8 23.3 5 1.06 0.163 2.12 0.325 3.21 0.493 13.6 1.98 27 2.44 40.7 2.44 2.77 2e-3 5.54 0.0204 8.31 0.0393 16.2 0.0524 32.8-0.545 48.6-4.41 0.903-0.215 1.81-0.43 2.74-0.652 13.1-3.25 25.3-7.99 37.3-14.2 0.766-0.391 1.53-0.782 2.32-1.18 7.68-4.12 14.1-9.25 18.5-16.8-0.58-0.0258-1.16-0.0516-1.76-0.0781-5.44-0.395-9.01-1.19-13.2-4.92-2.35-3.33-3.27-5.97-3.12-10 0.753-4.16 2.65-6.18 5.96-8.68 6.7-4.08 13.3-5.73 21.1-6.51z" fill="#011A4F" style="fill:#111827"/><path transform="translate(535,387)" d="m0 0c-0.897 10.4-2.6 19.4-7 29-0.758 1.71-0.758 1.71-1.53 3.46-8.35 17.8-20 30-38.5 37.5-17.7 6.09-37.6 7.97-55.2 0.664-11.4-5.59-23.1-15-28.8-26.7v-2c37.8-18.6 77.8-31.2 119-40.6 0.686-0.156 1.37-0.313 2.08-0.474 3.42-0.738 6.61-1.12 10.1-0.963z" fill="#fdfef1"/><path transform="translate(256,386)" d="m0 0c5.06 1.88 9.83 4.33 14.7 6.73 0.939 0.467 1.88 0.933 2.84 1.41 1.99 0.989 3.97 1.98 5.96 2.97 3 1.49 6 2.98 9 4.46 10.1 5.05 20.1 10.2 29.5 16.4-0.861 6.43-3.21 12-5.67 17.9-0.776 1.89-1.54 3.78-2.3 5.67-0.485 1.19-0.971 2.38-1.47 3.6-0.444 1.09-0.888 2.18-1.35 3.3-1.22 2.5-1.22 2.5-3.22 3.5-4.45-1.36-8.71-3.2-13-5-0.901-0.374-1.8-0.748-2.73-1.13-12.9-5.86-21.3-16.1-26.3-29.1-1.59-4.78-2.36-9.65-3.12-14.6-0.327-2.01-0.653-4.01-0.98-6.02-0.137-0.874-0.274-1.75-0.415-2.65-0.417-2.52-0.902-5.02-1.42-7.52z" fill="#fdfdf2"/><path transform="translate(330,810)" d="m0 0c4.72 14.5 8.33 29.2 12 44-7.64-2.3-14.6-5.54-21.7-9.12-1.72-0.861-1.72-0.861-3.47-1.74-8.31-4.23-16.2-8.77-23.8-14.1 2.45-2.75 5.1-4.3 8.33-6.03 1.05-0.563 2.09-1.13 3.17-1.71 1.09-0.581 2.18-1.16 3.31-1.76 1.08-0.581 2.16-1.16 3.28-1.76 2.97-1.59 5.93-3.18 8.91-4.74 1.03-0.558 2.05-1.12 3.11-1.69 2.89-1.31 2.89-1.31 6.89-1.31z" fill="#FCA601" style="fill:#ef4444"/></g></svg>
