<?xml version="1.0" encoding="UTF-8" standalone="no"?>
<svg
   version="1.1"
   viewBox="0 0 558.14235 556.45354"
   id="svg296"
   xmlns="http://www.w3.org/2000/svg"
   xmlns:svg="http://www.w3.org/2000/svg">
  <defs
     id="defs208" />
  <ellipse
     style="fill:#0f2537;fill-opacity:1;stroke:none;stroke-width:2.20077;stroke-opacity:1"
     id="path10565"
     cx="279.07117"
     cy="278.22678"
     rx="279.07117"
     ry="278.22678" />
  <path
     d="m 104.28117,265.58558 c -3.3945,4.2422 -5.089802,11.879 -3.3945,26.305 4.2422,29.695 33.938,62.789 44.121,65.332 -2.5469,-11.879 -5.9375,-25.453 -8.4844,-37.332 -18.664,-13.578 -33.09,-30.547 -32.242,-54.305 z"
     id="path210"
     style="fill:#d38d5f" />
  <path
     d="m 390.22117,401.33558 c 0.84766,0 0.84766,0 0.84766,-0.84766 0.84766,0 0.84766,-0.84766 1.6953,-0.84766 4.2422,-12.727 13.574,-58.547 16.969,-72.969 -36.484,23.758 -44.121,18.668 -100.12,5.0898 8.4844,13.574 0,25.453 -2.5469,29.695 -0.84766,1.6953 -2.5469,5.0898 -6.7891,5.0898 -2.5469,0 -4.2422,-0.84766 -5.9375,-3.3945 -6.7891,11.031 -27.152,10.184 -33.09,0 -8.4844,11.879 -25.453,-14.426 -14.426,-31.395 -38.184,9.332 -59.395,20.363 -95.031,-1.6953 5.0898,22.062 13.574,56 22.91,77.211 62.789,47.516 65.332,47.516 66.184,51.758 0,0.84766 0.84766,1.6953 0.84766,1.6953 22.062,10.184 43.273,13.574 68.727,4.2422 8.4883,-12.727 -4.2383,-0.84766 79.762,-63.633 z m -159.52,2.543 c -12.727,3.3945 -13.574,-10.184 -5.9375,-11.879 34.789,-10.184 72.121,-9.332 98.426,-2.5469 h 1.6953 0.84766 c 5.9375,1.6953 15.273,2.5469 12.727,11.031 -0.84766,2.5469 -3.3945,5.0898 -6.7891,5.0898 -0.84766,0 -1.6953,0 -4.2422,-0.84766 -14.426,21.215 -82.301,21.215 -96.727,-0.84766 z"
     id="path212"
     style="fill:#d38d5f" />
  <path
     d="m 261.25117,353.82558 c 0.84766,0.84766 0.84766,1.6953 1.6953,2.5469 2.5469,-4.2422 7.6367,-3.3945 10.184,-0.84766 8.4844,8.4844 15.273,-9.332 22.062,0.84766 0,-0.84766 0.84766,-1.6953 1.6953,-2.5469 11.031,-16.121 -5.9375,-16.121 1.6953,-24.605 -25.453,-5.0898 -37.332,0 -39.031,0 7.6367,7.6328 -9.332,8.4844 1.6992,24.605 z"
     id="path214"
     style="fill:#d38d5f" />
  <path
     d="m 253.62117,480.24558 14.426,27.152 h 21.211 c 2.5469,-5.0898 2.5469,-5.0898 13.574,-24.605 -14.426,2.5469 -33.941,2.5469 -49.211,-2.5469 z"
     id="path216"
     style="fill:#d38d5f" />
  <path
     d="m 388.52117,419.15558 c 4.2422,-2.5469 -57.695,43.273 -60.242,44.969 -15.273,28.848 -12.727,22.91 -28,51.758 -3.3945,5.9375 -10.184,2.5469 -33.09,3.3945 -2.5469,0.84766 -5.9375,-0.84766 -7.6367,-3.3945 1.6953,3.3945 -28,-50.91 -28,-52.605 -4.2422,-3.3945 -16.969,-12.727 -30.547,-22.91 l -29.695,-22.062 c -1.6953,22.91 -5.9375,68.727 -18.668,83.152 -2.5469,2.5469 -6.7891,5.9375 -13.574,8.4844 86.547,53.453 196,52.605 282.55,0 -6.7891,-2.5469 -11.031,-5.0898 -13.574,-8.4844 -12.73,-11.875 -16.973,-47.512 -19.52,-82.301 z"
     id="path218"
     style="fill:#d9534f;fill-opacity:1" />
  <path
     d="m 375.80117,25.460579 c 50.062,36.484 54.305,58.547 60.242,90.789001 7.6367,38.184 16.121,71.273 9.332,127.27 0.84766,1.6953 1.6953,2.5469 1.6953,4.2422 53.453,15.273 2.5469,116.24 -33.938,123.03 -3.3945,16.121 -5.9375,30.547 -12.727,44.121 5.0898,84.848 14.426,82.305 33.09,87.395 71.273,-50.066 117.09,-131.52 117.09,-223.16 0,-115.39 -72.969,-214.670001 -174.79,-253.700001 z"
     id="path220"
     style="fill:#4c9be8;fill-opacity:1" />
  <path
     d="m 156.89117,406.42558 c 0,-1.6953 0.84766,-3.3945 1.6953,-4.2422 -3.3945,-9.332 -6.7891,-20.363 -10.184,-31.395 -32.242,5.9375 -95.879003,-106.06 -39.031,-123.03 0.84766,-1.6953 1.6953,-2.5469 1.6953,-4.2422 -4.2422,-37.332 -2.5469,-72.121 5.9375,-110.3 10.184,-44.969001 6.7891,-66.184001 63.637,-107.760001 C 80.531267,64.487179 7.5612669,163.75618 7.5612669,279.15618 c 0,91.637 45.8160001,173.09 116.2400031,222.3 14.426,-4.2422 16.969,-6.7891 17.816,-7.6367 9.3359,-11.031 14.426,-59.395 15.273,-87.395 z"
     id="path222"
     style="fill:#4c9be8;fill-opacity:1" />
  <path
     d="m 331.68117,187.51558 c -14.426,3.3945 -29.695,5.9375 -44.969,5.9375 -61.938,0 -107.76,-32.242 -124.73,-45.816 -8.4844,17.816 -14.426,37.332 -17.816,54.305 8.4844,-3.3945 84.848,66.184 126.43,78.91 26.305,5.0898 60.242,-21.211 134.06,-75.516 -8.4844,-23.758 -12.727,-43.273 -14.426,-53.453 -9.332,1.6953 -19.516,2.5469 -31.395,2.5469 -39.031,0 -80.605,-8.4844 -106.91,-15.273 31.395,22.91 79.758,34.789 80.605,34.789 3.3945,0.84766 5.0898,3.3945 5.0898,6.7891 -0.85156,3.3867 -2.5469,5.9336 -5.9414,6.7812 z"
     id="path224"
     style="fill:#d38d5f" />
  <path
     d="m 396.16117,266.42558 -45.816,27.152 c 39.031,8.4844 39.031,4.2422 45.816,-27.152 z"
     id="path226"
     style="fill:#ffffff;fill-opacity:1" />
  <path
     d="m 173.86117,296.12558 c 5.0898,3.3945 28,-0.84766 33.938,-2.5469 l -45.816,-27.152 c 3.3945,13.578 7.6367,27.156 11.879,29.699 z"
     id="path228"
     style="fill:#ffffff;fill-opacity:1" />
  <path
     d="m 134.83117,118.79558 c -5.0898,25.453 -14.426,57.695 -11.031,106.91 0.84766,-0.84766 0,-0.84766 2.5469,-3.3945 3.3945,-24.605 14.426,-62.789 28,-89.09 9.332,-17.816 40.727,45.816 132.36,45.816 5.0898,0 9.332,0 14.426,-0.84766 -25.453,-9.332 -61.938,-25.453 -78.91,-49.211 -3.3945,-5.0898 1.6953,-12.727 7.6367,-10.184 0.84766,0 68.727,22.062 128.97,22.062 67.031,0 26.305,-22.91 60.242,65.332 1.6953,2.5469 5.9375,6.7891 15.273,19.516 1.6953,-29.695 -0.84766,-58.547 -7.6367,-89.09 -11.031,-50.062001 -3.3945,-67.031001 -93.332,-123.880001 -35.637,-7.6367004 -72.969,-7.6367004 -108.61,0 -78.91,50.059 -83.152,69.574 -89.941,106.060001 z"
     id="path230"
     style="fill:#373748" />
  <path
     d="m 417.37117,354.67558 c 26.305,-17.816 50.91,-69.574 35.637,-88.242 0.84766,20.363 -10.184,36.484 -26.305,49.211 0.84766,0.84766 -4.2422,16.969 -9.332,39.031 z"
     id="path232"
     style="fill:#d38d5f" />
  <path
     d="m 291.80117,293.58558 c -3.3945,0.84766 -21.211,0.84766 -25.453,0 -30.547,-9.332 -99.273,-61.09 -118.79,-76.363 -43.273,51.758 -39.879,66.184 14.426,102.67 8.4844,5.0898 16.969,8.4844 26.305,9.332 22.062,1.6953 63.637,-16.969 89.938,-16.969 11.879,0 19.516,2.5469 22.062,2.5469 55.152,11.031 69.574,30.547 119.64,-12.727 5.9375,-5.0898 8.4844,-7.6367 9.332,-10.184 21.211,-27.152 1.6953,-48.363 -20.363,-75.516 -22.91,20.359 -87.395,68.723 -117.09,77.211 z m -65.332,8.4844 c -13.574,4.2422 -47.516,12.727 -60.242,5.0898 -12.727,-7.6367 -18.668,-43.273 -20.363,-53.453 0,-2.5469 0.84766,-5.0898 2.5469,-6.7891 6.7891,-4.2422 5.9375,0.84766 79.758,43.273 2.5469,1.6953 3.3945,4.2422 3.3945,6.7891 -0.85156,2.543 -2.5508,4.2422 -5.0938,5.0898 z m 185.82,-48.363 c -1.6953,11.031 -7.6367,45.816 -20.363,53.453 -12.727,7.6367 -45.816,-0.84766 -60.242,-5.0898 -2.5469,-0.84766 -4.2422,-3.3945 -5.0898,-5.9375 -0.84766,-7.6367 4.2422,-5.0898 75.516,-50.062 5.0898,-2.5469 11.031,1.6953 10.18,7.6367 z"
     id="path234"
     style="fill:#5cb85c;fill-opacity:1" />
  <path
     d="m 246.83117,400.48558 c 15.273,9.332 50.062,9.332 65.332,0 -22.059,-4.2422 -43.273,-4.2422 -65.332,0 z"
     id="path236"
     style="fill:#ffffff;fill-opacity:1" />
</svg>
