<svg width="860" height="860" version="1.1" xmlns="http://www.w3.org/2000/svg"><path d="m442 0.51-2.97 0.0137c-14.7 0.0817-29.2 0.515-43.7 3.36l-3.05 0.586c-24.8 4.91-48.1 13.4-71.2 23.5-48.6 21.3-48.6 21.3-71.7 13.3-10-4.36-17.9-11.7-23.3-21.2l-1.17-2.06c-0.75-1.35-1.48-2.72-2.17-4.1-1.92-3.52-2.95-4.82-6.84-6.04-14.1 0.309-28.7 15.6-38 25.2-15.3 17-26.1 36.5-31.6 58.9l-0.91 3.66c-2.75 12.5-6.05 33.4-0.0898 45.3l-2.2 0.725c-3.22 1.47-5.07 3.18-7.56 5.68l-2.7 2.7-2.79 2.83-2.74 2.73c-7.9 8.07-14 15.6-20.4 23.4-91.7 295-96.9 541 175 653l2.68 1.07c30.8 12.1 63 19.3 95.7 23.7l2.49 0.34c15.2 1.88 30.6 2.03 45.9 2.03 2.93 2e-3 5.86 0.0202 8.79 0.0391 55 0.167 109-13.6 159-36.2l3-1.34c36-16.2 70.5-38.2 100-64.2 1.35-1.14 2.72-2.25 4.11-3.35 7.32-5.82 13.9-12.1 20.5-18.8 1.75-1.76 3.51-3.51 5.28-5.27 6.74-6.73 13-13.6 18.9-21.1 0.911-1.12 1.82-2.23 2.74-3.34l2.13-2.6 2.18-2.65c3.59-4.38 3.59-4.38 6.07-9.41 1.44-3.52 3.48-6.25 5.81-9.25 102-149 80-369-20.1-500l-1.43-1.67c-0.922-1.07-1.85-2.14-2.78-3.21-2.59-3.01-4.56-5.93-6.31-9.48-11.5-21.7-31.3-37.8-54.3-45.9h-3l-0.0781-3.19c-0.888-25.4-10.9-47-28.9-64.8-5.49-4.98-11.9-9.73-19-12-2.72 0.297-2.72 0.297-5 1-1.67 4.49-2.42 8.6-2.85 13.4l-0.193 2.06c-0.2 2.15-0.39 4.3-0.58 6.45-0.135 1.47-0.27 2.93-0.406 4.4-0.33 3.57-0.652 7.15-0.969 10.7-1.97-1.97-3.94-3.94-5.9-5.9-1.6-1.6-3.21-3.21-4.82-4.81-1.5-1.51-2.99-3.04-4.46-4.58-28.4-29.4-67.8-48-107-57l-3.1-0.709c-18.2-3.94-36.2-5.57-54.8-5.42z" style="fill:#111827"/><path d="m665 331c14.8 8.58 22.8 19.7 28.5 35.6 7.54 29.1-0.51 62.2-15.2 87.7-5.94 10-12.9 18.7-21 27-0.654 0.715-1.31 1.43-1.98 2.17-14.4 15.4-33.3 24.6-54.4 25.3-9.31 0.0979-17.1-1.08-25.2-6.07-3.5-2.03-5.46-2.17-9.43-1.41-5.63 5.37-8.5 13-11.6 19.9-5.1 11-11 20.5-18.4 30.1-0.854 1.14-1.71 2.29-2.55 3.43-2.42 3.24-4.91 6.42-7.45 9.57-0.427 0.531-0.853 1.06-1.29 1.61-12 14.7-25.5 29-40.7 40.4-0.55 0.422-1.1 0.843-1.67 1.28-9.06 6.94-18.4 13.2-28.3 18.7-0.846 0.471-1.69 0.942-2.56 1.43-13.4 7.39-26.9 13.6-41.4 18.6-1.2 0.413-1.2 0.413-2.42 0.834-5.49 1.87-11 3.58-16.6 5.17-1.16 0.334-1.16 0.334-2.35 0.675-46.4 13-114 17.8-157-6.49-13.6-8.62-17.2-20.1-20.8-35.2-0.816-4.04-1.54-8.1-2.28-12.2-2.48-13.3-5.76-26.2-9.29-39.2-0.618-2.31-1.24-4.62-1.85-6.93-1.85-6.9-3.71-13.8-5.58-20.7-0.279-1.03-0.557-2.06-0.844-3.12-4.41-16.3-8.83-32.5-13.3-48.8-0.934-3.37-1.86-6.74-2.79-10.1-0.429-1.56-0.861-3.11-1.3-4.67-3.48-12.4-6.14-24.8-6.11-37.8 2e-3 -0.829 3e-3 -1.66 5e-3 -2.51 0.2-10.5 2.21-20.8 4.37-31 0.181-0.87 0.363-1.74 0.55-2.64 0.508-2.4 1.03-4.79 1.58-7.17 0.158-0.705 0.316-1.41 0.479-2.14 1.15-4.81 1.15-4.81 3.4-7.05 0.464 0.485 0.928 0.969 1.41 1.47 9.56 9.27 22 14.5 34.6 18.5 0.993 9.73-3.13 19-7.11 27.7-5.34 11.7-8.41 21.3-4.26 34.1 5.49 13 14.1 20.9 27.1 26.2 9.26 2.87 18.1 3.35 27.8 3.32 1.25 0.0161 2.51 0.0322 3.8 0.0488 7.12 4e-3 14.2-0.125 20.7-3.36 1.84-2.69 1.84-2.69 2-6 0.144-1.18 0.289-2.35 0.438-3.56-0.164-3.56-0.164-3.56-2.56-6.25-4.57-3.48-9.06-4.4-14.7-4.71-1.65-0.105-1.65-0.105-3.33-0.213-2.27-0.13-4.54-0.258-6.81-0.383-19.2-1.24-19.2-1.24-24.7-6.38-3.14-5.99-3.33-12.6-1.62-19.1 0.943-2.58 1.97-5.1 3.06-7.63 3.45-8.49 6.17-16.8 8.25-25.8 8.74-0.707 15.1 1.08 23.1 4.56 2.21 0.932 4.43 1.86 6.64 2.79 1.07 0.457 2.15 0.914 3.26 1.38 2.62 1.09 5.25 2.1 7.92 3.06 9.32 3.35 17.6 7.61 26.1 12.6 19.2 11.3 40.3 19.3 62 24.6 1.04 0.26 2.08 0.521 3.15 0.789 46.1 9.28 103-12.6 141-37.3 9.22-6.16 18.6-12.7 26.6-20.4 6.55-6.11 6.55-6.11 10.9-5.99 2.83 0.753 5.35 1.73 8.03 2.91 3.13 0.962 6.11 1.26 9.38 1.38 1.37 0.0735 1.37 0.0735 2.77 0.148 5.14-0.943 7.72-3.97 10.7-8.02 2.04-3.03 4.02-6.1 5.98-9.19 12.8-20.2 46.9-59.7 74.9-45.6z" fill="#FEA26C" style="fill:#d5a478"/><path d="m147 140c0.159 0.762 0.317 1.52 0.48 2.31 3.09 13.7 9.63 24.6 21.7 32.2 3.22 1.95 6.46 3.82 9.83 5.5-0.626 4.34-2.28 7.9-4.21 11.8-3.53 7.35-6.28 14.8-8.8 22.6-0.679 2.09-1.37 4.16-2.07 6.24-2.72 8.19-5.03 16.4-7.04 24.8-0.867 3.52-1.85 6.99-2.88 10.5-6.45 24.3-10.1 50.2-1 74.1 1.31 4.41 0.598 7.95-0.477 12.3-0.342 1.47-0.685 2.94-1.03 4.41-0.275 1.15-0.275 1.15-0.555 2.33-11.7 49.4-15.1 92.1-2.07 141 1.23 4.72 2.45 9.44 3.68 14.2 0.296 1.14 0.593 2.27 0.898 3.45 3.24 12.5 6.21 25 9.09 37.6 1.47 6.36 3.09 12.6 4.89 18.9 2.75 9.64 4.81 19.4 6.88 29.2 0.722 3.37 1.47 6.72 2.22 10.1 0.261 1.16 0.522 2.32 0.791 3.52 0.525 2.33 1.05 4.66 1.58 6.99 1.22 5.43 2.33 10.8 3.16 16.3 2.75 17.7 12.7 31.4 26.9 41.9 13.1 8.58 28.5 16 44 18.3-2.92 6.81-9.45 11.7-15 16.4-10.3 8.93-16.7 19.2-22.9 31.2-4.05 7.73-8.55 13.1-15.2 18.8-6.5 5.67-12.1 11.9-16 19.6-4.08-2.32-7.76-5.03-11.4-7.94-0.608-0.481-1.22-0.962-1.84-1.46-18.4-14.7-36.5-30.6-51.7-48.6-0.888-1.01-1.78-2.03-2.67-3.04-22-25.1-41-53.7-55.3-83.9-1.05-2.18-2.14-4.33-3.24-6.48-12.7-25.2-21.7-52.3-28.8-79.6-0.411-1.56-0.411-1.56-0.83-3.16-22.1-85.3-14.7-177 44.6-314 10.3-17.4 21.5-34.3 34.2-50.1 1.1-1.39 1.1-1.39 2.22-2.8 7.69-9.58 16-18.5 24.7-27.3 0.535-0.548 1.07-1.1 1.62-1.66 7.26-7.28 7.26-7.28 11.5-7.28z" fill="#0076BD" style="fill:#2f8de1"/><path d="m724 172c1.01-0.0206 2.02-0.0412 3.06-0.0625 6.85-0.0358 11.8 0.51 17.4 4.75 4.99 5.29 9.58 10.9 14.1 16.6 0.761 0.944 1.52 1.89 2.3 2.86 12.4 15.7 23.1 32.6 32.7 50.1 0.482 0.873 0.964 1.75 1.46 2.65 41.4 75.6 56.7 166 44.5 251-0.0971 0.685-0.194 1.37-0.294 2.08-5.95 41.6-17.7 81.9-35.7 120-0.481 1.02-0.962 2.03-1.46 3.08-9.58 20.1-20.7 38.8-33.5 56.9-1.4 2-2.79 4-4.19 6-0.937 1.33-1.87 2.67-2.81 4l-1-2c-0.598-0.294-1.2-0.588-1.81-0.891-2.55-1.29-4.17-2.84-6.2-4.86-0.753-0.749-1.51-1.5-2.28-2.27-0.79-0.799-1.58-1.6-2.39-2.42-1.22-1.23-1.22-1.23-2.46-2.48-4.9-4.97-9.48-10-13.8-15.5-4.09-5.1-8.59-9.82-13.1-14.6-0.982-1.06-0.982-1.06-1.98-2.15-13.3-13.9-30-24.3-48-30.9-1.43-0.518-1.43-0.518-2.89-1.05-8.19-2.73-16.5-4.3-25-5.83-8.72-1.58-17.4-3.37-26.1-5.12-0.428-7.49-0.856-15-1.28-22.5-0.145-2.55-0.291-5.1-0.437-7.65-0.209-3.66-0.418-7.32-0.625-11-0.0656-1.14-0.131-2.29-0.199-3.47-0.0901-1.59-0.0901-1.59-0.182-3.21-0.0533-0.935-0.107-1.87-0.162-2.83-0.0859-1.79-0.114-3.58-0.114-5.37 0.813-0.28 1.63-0.559 2.46-0.848 29.9-10.5 57.2-25 77.5-50.2 0.746-0.897 1.49-1.79 2.26-2.72 20.8-25.9 35.6-59.8 36-93.3 0.01-0.739 0.0197-1.48 0.0298-2.24 0.462-22.2 0.462-22.2-4.27-43.7-0.247-0.716-0.493-1.43-0.748-2.17-3.15-8.9-7.04-16.7-12.6-24.4-0.561-0.798-1.12-1.6-1.7-2.42-0.451-0.605-0.902-1.21-1.37-1.83-1.04-3.56 0.414-6.66 1.55-10 0.482-1.53 0.96-3.05 1.43-4.58 0.237-0.763 0.474-1.53 0.718-2.31 3.14-10.6 4.81-21.5 4.83-32.5 3e-3 -0.77 7e-3 -1.54 0.0101-2.33 5e-3 -1.62 7e-3 -3.25 7e-3 -4.87 2e-3 -2.42 0.0203-4.84 0.0393-7.27 0.0544-14.5-1.05-28.6-4.91-42.6-0.256-0.958-0.512-1.92-0.776-2.9-2.87-10.4-6.53-20.6-10.7-30.6-1.05-2.84-0.928-4.34 0.207-7.14 6.66-3.81 15-3.21 22.4-3.25z" fill="#0076BD" style="fill:#2f8de1"/><path d="m433 249c0.919 0.15 1.84 0.301 2.79 0.456 27.4 4.69 50.4 18.5 70.2 37.5 1.97 1.82 3.95 3.63 5.94 5.44 4.38 4.01 8.76 8.04 13.1 12.1 0.823 0.757 0.823 0.757 1.66 1.53 1.43 1.32 2.85 2.64 4.28 3.97 0.566 0.494 1.13 0.987 1.71 1.5 9.14 10.7 10.4 32.5 9.81 45.9-0.661 4.49-1.72 6.34-5.28 9.06-1.11 0.754-1.11 0.754-2.25 1.52-1.78 1.45-3.55 2.91-5.31 4.38-0.951 0.764-1.9 1.53-2.88 2.32-2.59 2.13-5.04 4.34-7.49 6.62-31 28.1-70.6 44.2-112 46.7-0.699 0.0453-1.4 0.0906-2.12 0.137-43.7 2.46-87.3-20.9-125-40.3-7.66-3.91-15.1-7.3-23.4-9.66-2.1-0.662-2.1-0.662-5.35-2.18-2.14-4.26-0.27-8.63 0.938-13 3.96-15.7 2.08-29.2-6.12-43.3-9.94-14.7-26.5-26.1-43.8-30.7-3.68-0.315-3.68-0.315-7.5-0.25-1.27-5e-3 -2.54-0.0103-3.84-0.0156-3.56 0.259-6.34 0.977-9.66 2.27 1.47-9.67 3.71-18.9 6.56-28.2 0.305-1 0.61-2 0.924-3.03 1.27-4.08 2.51-7.94 4.51-11.7 20.6 2.57 40.1 7.25 60 13.2 33.5 9.89 63.3 2.11 95.9-6.54 29.1-7.7 54.2-10.8 84.1-5.7z" fill="#D92500" style="fill:#3fad3f"/><path d="m576 545h2c0.0237 7.32 0.0412 14.6 0.0518 22 5e-3 3.4 0.0126 6.81 0.0236 10.2 0.0251 7.94 8e-3 15.9-0.0561 23.8-0.0163 3.36-3e-3 6.71 0.0248 10.1 0.0162 3.24-0.0204 6.49-0.0481 9.73 0.0197 1.17 0.0393 2.34 0.0596 3.54-0.155 8.98-3.18 14-9.06 20.7-0.622 0.714-1.24 1.43-1.88 2.16-1.6 1.8-3.25 3.54-4.93 5.27-1.22 1.28-2.45 2.57-3.67 3.86-0.596 0.624-1.19 1.25-1.81 1.89-2.04 2.16-4.02 4.36-6 6.58-4.86 5.41-9.99 10.4-15.4 15.2-3.15 2.83-6.22 5.73-9.29 8.64-6 5.68-12 11.2-18.5 16.3-2.58 2.1-5.05 4.29-7.51 6.54-4.65 4.22-9.46 8.2-14.3 12.1-1.89 1.54-3.77 3.09-5.65 4.65-7.17 5.93-14.4 11.8-21.7 17.5-4.67 3.65-9.25 7.4-13.8 11.2-5.11 4.24-10.3 8.42-15.5 12.5-7.49 5.83-14.8 11.9-22.1 17.9-2.54 2.1-5.1 4.18-7.66 6.26-8.91 7.29-17.7 14.7-26.1 22.5-1.98 1.66-3.77 2.75-6.12 3.78-6.58-7.05-12.6-14.4-18.5-22.1-1.58-2.03-3.18-4.05-4.78-6.06-7.25-9.17-13.5-18.4-18.7-28.9-0.524-1.02-0.524-1.02-1.06-2.06-5.98-11.8-9.34-23.9-12.2-36.8-0.706-3.13-1.44-6.25-2.18-9.37-0.466-1.99-0.931-3.98-1.39-5.97-0.216-0.923-0.431-1.85-0.653-2.8-0.194-0.856-0.389-1.71-0.589-2.59-0.171-0.748-0.343-1.5-0.519-2.27-0.364-2.09-0.364-2.09-0.364-6.09 1.51-0.0219 1.51-0.0219 3.06-0.0442 64.1-0.996 127-12.6 181-50 0.562-0.382 1.12-0.764 1.7-1.16 19.8-13.5 37-29.6 51.3-48.8 0.912-1.21 1.83-2.41 2.74-3.62 8.07-10.7 15.4-21.9 22.3-33.5 0.501-0.832 1-1.66 1.52-2.52 0.97-1.62 1.93-3.24 2.89-4.86 0.433-0.725 0.866-1.45 1.31-2.2 0.38-0.646 0.761-1.29 1.15-1.96 0.351-0.456 0.701-0.912 1.06-1.38z" fill="#FDA26C" style="fill:#d5a478"/><path d="m502 160c0.839 0.675 1.68 1.35 2.54 2.05 19.6 16.6 30 40.7 32.5 66 0.988 16-0.564 32.1-2 48-4.28-1.94-7-4.95-10.2-8.31-30.1-30.8-76.2-53.5-120-54-0.864-0.0177-1.73-0.0354-2.62-0.0537-13.2 0.0146-25.6 3.34-37.9 7.78-2.04 0.735-4.08 1.46-6.13 2.17-2.81 0.986-5.62 1.98-8.43 2.97-53.8 19-95.2 13.2-149-2.56 0.612-3.67 1.64-6.75 3.18-10.1 0.434-0.954 0.869-1.91 1.32-2.89 0.455-0.985 0.91-1.97 1.38-2.98 0.447-0.985 0.895-1.97 1.36-2.98 2.06-4.5 4.17-8.8 6.77-13 3.93 0.46 7.63 1.12 11.4 2.19 21.6 5.91 45.4 6.95 66.6-1.19 0.774-0.295 1.55-0.59 2.34-0.895 12.4-4.89 23.7-11.5 35.2-18.3 53.4-31.7 116-58.7 171-13.8z" fill="#FDA26C" style="fill:#d5a478"/><path d="m613 637c26.7 2.52 53.8 9.61 74 28 0.659 0.578 1.32 1.16 2 1.75 6.73 6.27 12.1 13.9 17.5 21.3 1.29 1.74 2.6 3.46 3.91 5.18 0.965 1.3 0.965 1.3 1.95 2.63 0.544 0.728 1.09 1.46 1.65 2.21 0.977 1.98 0.977 1.98 0.781 3.93-1.05 2.69-2.25 3.39-4.69 4.91-0.839 0.531-1.68 1.06-2.54 1.61-0.929 0.569-1.86 1.14-2.82 1.72-1.46 0.91-1.46 0.91-2.95 1.84-12.8 7.91-25.8 15.5-38.8 23-0.579 0.332-1.16 0.663-1.75 1.01-38.7 22.2-79.2 41.1-121 56-0.685 0.242-1.37 0.484-2.08 0.734-32.4 11.4-65.2 20-98.9 26.4-0.848 0.162-1.7 0.324-2.57 0.491-2.51 0.355-4.91 0.406-7.45 0.345 4.3-4.36 8.73-8.56 13.2-12.8 0.759-0.714 1.52-1.43 2.3-2.17 3.9-3.66 7.82-7.29 11.8-10.8 3.74-3.33 7.29-6.81 10.8-10.4 4.46-4.51 9.03-8.78 13.9-12.9 1.6-1.36 3.19-2.73 4.78-4.1 1.2-1.03 2.39-2.05 3.59-3.08 4.39-3.76 8.76-7.54 13.1-11.3 19.3-16.7 19.3-16.7 27-23 9.51-7.74 18.8-15.7 27.8-24.1 2.11-1.92 4.24-3.78 6.4-5.64 4.08-3.57 7.96-7.31 11.8-11.1 0.68-0.677 1.36-1.35 2.06-2.05 1.43-1.42 2.85-2.84 4.28-4.27 2.15-2.15 4.31-4.29 6.48-6.44 12.2-12.2 21.2-21.7 24.7-38.9z" fill="#FED620" style="fill:#df4444"/><path d="m399 290c0.669 2e-3 1.34 4e-3 2.03 7e-3 22.4 0.116 45.7 5.68 62.6 21.4 6.38 6.85 10.7 14.9 11.2 24.3-0.396 9.48-5.44 16.6-11.4 23.6-0.647 0.791-1.29 1.58-1.96 2.4-17 20-42.1 32.6-68.3 34.8-14.6 0.842-28.7-1.21-41.7-8.18-0.908-0.469-1.82-0.938-2.75-1.42-13.4-7.33-29-19.3-35.2-33.6-1.03-6.7 1.47-11.5 5-17 5.98-8.07 13-15.2 20.1-22.4 0.731-0.749 1.46-1.5 2.22-2.27 7.64-7.63 15.4-13.6 25.8-16.7 0.738-0.238 1.48-0.476 2.24-0.721 2.22-0.701 4.46-1.34 6.7-1.97 0.676-0.198 1.35-0.396 2.05-0.6 7.11-1.86 14.3-1.74 21.6-1.71z" fill="#01213D" style="fill:#111827"/><path d="m373 521c2.75 2.18 3.75 3.85 4.48 7.27 0.388 4.85-0.205 8.12-3.23 12-4.69 4.67-10.2 7.24-16.2 9.75-1.03 0.442-2.06 0.884-3.12 1.34-20.6 7.85-42.9 8.03-64.6 8.04-1.03 2e-3 -2.06 4e-3 -3.13 6e-3 -45.6-0.01-45.6-0.01-58.7-10.8-2.34-2.64-3.29-4.96-3.82-8.44 0.57-4.07 2.2-6.66 5.44-9.12 3.01-0.764 5.85-0.614 8.94-0.438 0.766 0.0187 1.53 0.0374 2.32 0.0566 3.55 0.107 7.09 0.326 10.6 0.625 10.8 0.895 21.5 0.976 32.3 0.996 3.24 0.01 6.49 0.0408 9.73 0.0723 22.6 0.115 46.9-1.54 67.9-10.7 4.08-1.76 6.85-2.1 11.2-0.625z" fill="#011F3C" style="fill:#111827"/><path d="m430 319c0.782 0.278 1.56 0.557 2.37 0.844 6.14 2.47 11.3 6.22 16.6 10.2-0.355 9.24-4.34 17.6-10.6 24.3-13.5 12.3-31.3 16.8-49.2 16.9-1.42 0.0309-1.42 0.0309-2.87 0.0625-6.76 0.0372-14.1-0.233-19.2-5.11-4.69-8.86-6.59-17.2-4.48-27.1 2.51-8.09 6.62-12.4 13.9-16.5 16.1-7.94 36.5-9.68 53.5-3.57z" fill="#FDFDF3" style="fill:#ffffff"/><path d="m275 715h2c0.295 2.4 0.587 4.79 0.875 7.19 0.091 0.751 0.182 1.5 0.276 2.28 0.513 4.34 0.96 8.67 1.32 13 0.0781 0.917 0.156 1.83 0.237 2.78 0.148 1.78 0.288 3.56 0.417 5.34 0.764 9.03 3.44 16.3 8.19 24 0.882 1.46 1.76 2.93 2.64 4.39 0.48 0.794 0.961 1.59 1.46 2.4 3.07 5.1 6.08 10.2 9.09 15.4 0.917 1.55 0.917 1.55 1.85 3.14 0.575 0.98 1.15 1.96 1.74 2.97 0.512 0.871 1.02 1.74 1.55 2.64 1.33 2.45 2.38 4.9 3.35 7.5-11.7-3.37-23.1-7.5-34.6-11.6-2.63-0.93-5.27-1.85-7.9-2.77-3.82-1.32-7.63-2.67-11.4-4.02-1.18-0.407-2.37-0.815-3.59-1.23-1.09-0.39-2.18-0.781-3.3-1.18-0.96-0.337-1.92-0.675-2.91-1.02-2.68-1.42-3.32-2.39-4.3-5.22-1.86-15.2-0.525-30 8.82-42.4 6.24-7.36 13.3-14 20.7-20.3 1.22-1.05 2.38-2.17 3.52-3.3z" fill="#FCD720" style="fill:#df4444"/><path d="m651 375c2.44 1.38 2.44 1.38 4 4 1.38 6 0.179 10.4-3 15.6-3.6 5.17-7.66 9.88-12 14.4l1 2.25c2.65 9.93 1.17 19.5-3.41 28.5-4.86 8.33-11.9 15.9-21.4 18.8-5.97 1.09-11.8 1.35-17.5-0.848-3.04-4.78-2.58-9.27-1.75-14.8 5.75-23.4 21.1-51.6 41.1-65.4 4.3-2.37 7.93-3.31 12.9-2.55z" fill="#02203D" style="fill:#111827"/><path d="m209 316c8.03 3.65 15 8.79 18.7 17 2.36 7.21 2.38 14.3-0.648 21.3-2.18 3.91-4.77 6.19-8.79 8.07-7.34 1.58-13.4 0.803-20.2-2.31-6.28-4.1-9.66-9.99-12-17-1.26-20.6-1.26-20.6 4-27 6.08-3.83 12.5-2.46 18.9-0.0625z" fill="#FBFCF2" style="fill:#ffffff"/></svg>
