<svg width="32" height="32" fill="#000000" version="1.1" viewBox="0 0 256 256" xmlns="http://www.w3.org/2000/svg"><path d="M200,40H56A16,16,0,0,0,40,56V200a16,16,0,0,0,16,16H200a16,16,0,0,0,16-16V56A16,16,0,0,0,200,40Zm0,80H136V56h64ZM120,56v64H56V56ZM56,136h64v64H56Zm144,64H136V136h64v64Z"/><path transform="scale(8)" d="m17 21v3.98h7.99v-7.95h-7.99v3.98z" style="fill:#72e600;stroke-linecap:round;stroke-linejoin:round;stroke-width:.00869;stroke:#ffffff"/><path transform="scale(8)" d="m7.01 11v3.98h7.99v-7.95h-7.99v3.98z" style="fill:#f4ffe4;stroke-linecap:round;stroke-linejoin:round;stroke-width:.00869;stroke:#ffffff"/><path transform="scale(8)" d="m7.01 21v3.98h7.99v-7.95h-7.99v3.98z" style="fill:#f4ffe4;stroke-linecap:round;stroke-linejoin:round;stroke-width:.00869;stroke:#ffffff"/><path transform="scale(8)" d="m17 11v3.98h7.99v-7.95h-7.99v3.98z" style="fill:#f4ffe4;stroke-linecap:round;stroke-linejoin:round;stroke-width:.00869;stroke:#ffffff"/></svg>
