<svg width="128" height="128" version="1.1" viewBox="0 0 128 128" xmlns="http://www.w3.org/2000/svg"><g transform="translate(8.47 10.5)" fill="#000000" fill-rule="evenodd" font-size="12px" stroke="#000000" stroke-linecap="round" stroke-width=".25mm" style="fill:#000000;stroke-width:.25mm;stroke:#000000"><rect x="-8.32" y="-10.3" width="128" height="128" style="fill:#ffffff;stroke-linecap:round;stroke-linejoin:round;stroke-width:.299;stroke:#ffffff"/><path d="m69.4 91h-0.244l-6.15-0.146h-3.66q-1.56 0.195-6.76 0.195-5.2 0-15.5 0.244-1.9-1.71-3.56-9.89-1.66-8.18-4.22-16.8-2.56-8.62-3.2-10.9l-1.46-5.18q-0.634-2.25-2.2-7.67-4.93-16.7-6.49-24.4 0-0.39 28.6-0.39 0.879 0 1.37 0.634 3.86 22.9 8.69 49.9l0.391 2.59h1.95l0.439-2.54q1.51-9.52 5.76-30.7l1.17-5.52q0.586-2.78 2.68-13.9 2.25-0.586 24.9-0.586h2.2q0.586 0.342 0.732 0.635l-9.81 35.5q-1.07 3.86-1.27 4.93l-2.29 8.98q-5.52 23.5-7.91 25-1.32 0-4.15-0.098z" vector-effect="non-scaling-stroke" style="fill:#000000;stroke-width:.25mm;stroke:#000000"/></g></svg>
