<svg id="Layer_1" height="512" viewBox="0 0 128 128" width="512" xmlns="http://www.w3.org/2000/svg" data-name="Layer 1"><path d="m29.067 10.37c.165.165.34.34.5.514l59.633 66.505 5.215 5.8 5.204 5.811 5.215 5.8 15.26 17.023-8.264 8.264-17.023-15.26-5.8-5.215-5.812-5.206-5.805-5.206-66.5-59.637a13.222 13.222 0 1 1 18.18-19.19z" fill="#bdc3c7"/><path d="m111.525 103.873-7.652 7.652a5.843 5.843 0 0 0 0 8.264 5.843 5.843 0 0 0 8.264 0l7.651-7.652a5.844 5.844 0 0 0 0-8.264 5.843 5.843 0 0 0 -8.263 0z" fill="#ecf0f1"/><path d="m99.619 89.004 5.215 5.803-10.026 10.027-5.803-5.215z" fill="#ecf0f1"/><path d="m94.413 83.192 5.206 5.812-10.614 10.615-5.812-5.206z" fill="#bfc0c1"/><path d="m89.198 77.389 5.215 5.803-11.22 11.221-5.803-5.216z" fill="#ecf0f1"/><path d="m117.63 29.067c-.165.165-.34.34-.514.5l-66.505 59.633-5.8 5.215-5.811 5.204-5.8 5.215-17.023 15.26-8.264-8.264 15.26-17.023 5.215-5.8 5.206-5.812 5.215-5.8 59.637-66.5a13.222 13.222 0 1 1 19.19 18.18z" fill="#ecf0f1"/><path d="m24.127 111.525-7.652-7.651a5.843 5.843 0 0 0 -8.264 0 5.843 5.843 0 0 0 0 8.264l7.652 7.651a5.844 5.844 0 0 0 8.264 0 5.843 5.843 0 0 0 0-8.264z" fill="#ecf0f1"/><path d="m38.996 99.619-5.803 5.216-10.027-10.027 5.215-5.803z" fill="#ecf0f1"/><path d="m44.808 94.413-5.812 5.206-10.615-10.614 5.206-5.812z" fill="#bfc0c1"/><path d="m50.611 89.198-5.803 5.215-11.221-11.22 5.216-5.803z" fill="#ecf0f1"/><g fill="#241429"><path d="m44.186 61.17a1.75 1.75 0 0 0 1.169-3.053l-3.655-3.274a1.75 1.75 0 1 0 -2.337 2.605l3.65 3.274a1.743 1.743 0 0 0 1.173.448z"/><path d="m121.026 102.636a7.6 7.6 0 0 0 -8.3-1.638l-6.553-7.307c-.033-.04-.061-.083-.1-.121-.011-.011-.025-.019-.036-.03l-10.323-11.507c-.023-.025-.039-.054-.064-.078-.007-.007-.016-.012-.023-.019l-15.286-17.043 37.935-34.019c.127-.112.256-.238.384-.364l.209-.2a14.972 14.972 0 1 0 -21.732-20.588l-19.367 21.595a1.75 1.75 0 1 0 2.605 2.336l19.366-21.593a11.473 11.473 0 1 1 16.689 15.74l-.229.223c-.079.078-.157.156-.249.237l-65.274 58.531-9.468-9.468 33.629-37.5a1.75 1.75 0 1 0 -2.605-2.336l-8.234 9.183-33.127-36.947c-.112-.127-.236-.254-.361-.381l-.205-.21a15 15 0 0 0 -21.173 0 14.975 14.975 0 0 0 .589 21.729l23.933 21.465a1.75 1.75 0 0 0 2.337-2.605l-23.933-21.463a11.472 11.472 0 1 1 15.74-16.688l.227.233c.077.078.155.155.234.244l33.39 37.244-29.287 32.653-.014.012c-.015.015-.025.032-.039.047l-10.35 11.54c-.01.01-.022.016-.033.027-.034.034-.058.073-.089.109l-6.568 7.321a7.591 7.591 0 0 0 -8.3 12.371l7.652 7.652a7.614 7.614 0 0 0 8 1.757 1.75 1.75 0 0 0 -1.209-3.285 4.108 4.108 0 0 1 -4.312-.946l-7.653-7.649a4.093 4.093 0 0 1 5.789-5.789l7.652 7.652a4.1 4.1 0 0 1 1.185 2.55 1.75 1.75 0 1 0 3.487-.293 7.57 7.57 0 0 0 -.567-2.288l7.336-6.579c.032-.028.068-.05.1-.081.009-.009.015-.02.024-.029l11.564-10.37c.008-.008.019-.014.027-.022l.007-.008 17.947-16.099 17.941 16.089.014.017c.018.018.039.03.058.048l11.534 10.344c.009.009.015.02.024.029.03.03.065.051.1.079l7.329 6.575a7.595 7.595 0 0 0 12.377 8.3l7.652-7.651a7.6 7.6 0 0 0 -.003-10.738zm-17.971 7.232-5.7-5.109 7.4-7.4 5.11 5.7zm-11.505-10.319 8-8 2.87 3.2-7.669 7.669zm-5.809-5.21 8.6-8.6 2.87 3.2-8.268 8.268zm-5.809-5.21 9.2-9.2 2.87 3.2-8.87 8.871zm-31.864 0-3.199 2.871-8.869-8.868 2.869-3.2zm-9.008 8.078-8.269-8.267 2.869-3.2 8.6 8.6zm-5.809 5.21-7.669-7.67 2.87-3.2 8 8zm-15.119.636 5.11-5.7 7.4 7.4-5.7 5.109zm59.6-35.825 9.054 10.094-9.465 9.465-10.7-9.6zm40.819 43.672-7.651 7.651a4.093 4.093 0 0 1 -5.789-5.789l7.651-7.651a4.093 4.093 0 0 1 5.789 5.789z"/><path d="m82.292 55.08 16.284-14.6a1.75 1.75 0 0 0 -2.337-2.605l-16.284 14.6a1.75 1.75 0 1 0 2.337 2.605z"/></g></svg>